<?xml version="1.0" standalone="no"?>
<!DOCTYPE svg PUBLIC "-//W3C//DTD SVG 1.1//EN" "http://www.w3.org/Graphics/SVG/1.1/DTD/svg11.dtd" >
<!--
2013-9-30: Created.
-->
<svg>
<metadata>
Created by iconfont
</metadata>
<defs>

<font id="iconfont" horiz-adv-x="1024" >
  <font-face
    font-family="iconfont"
    font-weight="500"
    font-stretch="normal"
    units-per-em="1024"
    ascent="896"
    descent="-128"
  />
    <missing-glyph />
    
    <glyph glyph-name="x" unicode="x" horiz-adv-x="1001"
d="M281 543q-27 -1 -53 -1h-83q-18 0 -36.5 -6t-32.5 -18.5t-23 -32t-9 -45.5v-76h912v41q0 16 -0.5 30t-0.5 18q0 13 -5 29t-17 29.5t-31.5 22.5t-49.5 9h-133v-97h-438v97zM955 310v-52q0 -23 0.5 -52t0.5 -58t-10.5 -47.5t-26 -30t-33 -16t-31.5 -4.5q-14 -1 -29.5 -0.5
t-29.5 0.5h-32l-45 128h-439l-44 -128h-29h-34q-20 0 -45 1q-25 0 -41 9.5t-25.5 23t-13.5 29.5t-4 30v167h911zM163 247q-12 0 -21 -8.5t-9 -21.5t9 -21.5t21 -8.5q13 0 22 8.5t9 21.5t-9 21.5t-22 8.5zM316 123q-8 -26 -14 -48q-5 -19 -10.5 -37t-7.5 -25t-3 -15t1 -14.5
t9.5 -10.5t21.5 -4h37h67h81h80h64h36q23 0 34 12t2 38q-5 13 -9.5 30.5t-9.5 34.5q-5 19 -11 39h-368zM336 498v228q0 11 2.5 23t10 21.5t20.5 15.5t34 6h188q31 0 51.5 -14.5t20.5 -52.5v-227h-327z" />
    

    
    <glyph glyph-name="gouwu" unicode="&#58920;" d="M838.656 702.464q-117.76-9.216-211.968-16.384-39.936-3.072-79.36-6.144t-71.68-5.12-54.272-4.096-26.112-2.048q-5.12-1.024-11.776-1.536t-11.776-2.56l-12.288-4.096-45.056 20.48q5.12 7.168 12.288 13.312 5.12 5.12 12.8 9.728t15.872 5.632q6.144 1.024 32.768 3.072t65.536 5.12q0 13.312 2.56 36.352t12.288 45.568 28.16 39.936 50.176 20.48q36.864 3.072 59.904-11.264t35.84-35.328 17.92-43.008 6.144-34.304q44.032 3.072 73.216 5.12t32.256 3.072q11.264 1.024 25.088-4.096t22.016-13.312q2.048-2.048 5.632-6.144t6.656-8.192q4.096-4.096 7.168-10.24zM555.008 824.32q-19.456-2.048-31.232-13.824t-17.92-28.16-8.192-33.28-2.048-27.136q31.744 2.048 65.024 5.12t65.024 5.12q-1.024 9.216-4.608 25.6t-11.776 31.744-21.504 25.6-32.768 9.216zM955.392 71.68q5.12-28.672-1.536-47.616t-37.376-26.112q-10.24-3.072-44.544-10.24t-81.92-17.408-101.888-22.016-103.936-22.016-89.088-18.432-55.808-11.264q-37.888-8.192-55.808 5.12t-17.92 39.936l0 628.736q0 25.6 10.752 41.472t31.232 16.896q8.192 0 19.968 1.024t23.04 2.048q13.312 1.024 27.648 2.048l9.216-146.432q-1.024-1.024-4.096-1.024-2.048 0-6.144-0.512t-9.216-0.512q-21.504-2.048-20.48-25.6 1.024-9.216 2.048-25.6t1.536-34.304 1.536-34.816 2.048-27.136q1.024-19.456 6.144-22.016t22.528-2.56l14.336 0q6.144 0 11.776 0.512t12.8 1.024 18.432 1.536q21.504 2.048 27.648 9.216t5.12 21.504q0 7.168-1.536 25.088t-3.072 37.376-2.56 36.864-2.048 24.576q-2.048 12.288-5.12 17.408t-11.264 4.096q-4.096 0-8.192-0.512t-8.192-0.512l-8.192 0-9.216 145.408q69.632 6.144 128 10.24 24.576 2.048 49.664 4.096t46.592 3.584 37.888 3.072 24.576 2.56q29.696 2.048 47.104-10.24t21.504-36.864q1.024-8.192 7.168-49.152t15.36-98.304 19.456-123.392 19.456-123.392 15.872-98.304 8.704-49.152zM311.296-17.408q0-14.336 1.536-25.088t3.584-16.896q2.048-8.192 5.12-12.288-25.6 13.312-49.152 26.624-20.48 11.264-40.96 23.04t-34.816 19.968q-26.624 15.36-36.352 36.864t-4.608 45.056q2.048 6.144 9.216 45.056t17.92 94.208 22.528 118.784 22.016 118.784 17.92 95.232 8.704 47.104q4.096 22.528 14.848 34.816t25.088 6.144q8.192-4.096 13.312-9.216 3.072-3.072 4.096-5.12l0-643.072z"  horiz-adv-x="1024" />

    
    <glyph glyph-name="liebiao" unicode="&#58908;" d="M485.1579 376.2552c0-31.9293-26.1243-58.0536-58.0536-58.0536H220.770304c-31.9293 0-58.0536 26.1243-58.0536 58.0536V591.373056c0 31.9293 26.1243 58.0536 58.0536 58.0536h206.334976c31.9293 0 58.0536-26.1243 58.0536-58.0536V376.255232zM485.1579 7.9347c0-31.9304-26.1243-58.0536-58.0536-58.0536H220.770304c-31.9293 0-58.0536 26.1243-58.0536 58.0536V223.04742399999998c0 31.9304 26.1243 58.0536 58.0536 58.0536h206.334976c31.9293 0 58.0536-26.1243 58.0536-58.0536V7.934720000000084zM862.2592 376.2552c0-31.9293-26.1243-58.0536-58.0536-58.0536h-206.34624c-31.9304 0-58.0536 26.1243-58.0536 58.0536V591.373056c0 31.9293 26.1243 58.0536 58.0536 58.0536h206.34624c31.9304 0 58.0536-26.1243 58.0536-58.0536V376.255232zM862.2612 7.9347c0-31.9304-26.1243-58.0536-58.0536-58.0536H597.8603519999999c-31.9304 0-58.0536 26.1243-58.0536 58.0536V223.04742399999998c0 31.9304 26.1243 58.0536 58.0536 58.0536h206.347264c31.9304 0 58.0536-26.1243 58.0536-58.0536V7.934720000000084z"  horiz-adv-x="1024" />

    
    <glyph glyph-name="shengchanshiduan" unicode="&#58923;" d="M670.102 299.632c0 86.929-70.472 157.404-157.403 157.404-86.932 0-157.404-70.475-157.404-157.404 0-86.932 70.472-157.404 157.404-157.404 86.931 0 157.403 70.472 157.403 157.404zM512.698 72.64c-125.365 0-226.992 101.628-226.992 226.992 0 125.365 101.628 226.992 226.992 226.992 125.367 0 226.992-101.627 226.992-226.992 0-125.365-101.625-226.992-226.992-226.992zM556.37-7.356c0 24.001-19.464 43.457-43.457 43.457-23.996 0-43.457-19.456-43.457-43.457s19.46-43.457 43.457-43.457c23.992 0 43.457 19.456 43.457 43.457zM253.663 82.406c0-23.258 18.855-42.113 42.113-42.113s42.113 18.855 42.113 42.113c0 23.258-18.855 42.113-42.113 42.113-23.258 0-42.113-18.855-42.113-42.113zM205.71 257.307c24.001 0 43.457 18.854 43.457 42.112 0 23.252-19.456 42.111-43.457 42.113-24.001 0-43.457-18.858-43.457-42.113 0-23.258 19.456-42.112 43.457-42.112zM265.694 486.775c16.447-16.446 43.111-16.445 59.558 0 16.443 16.445 16.444 43.117 0 59.554-16.449 16.45-43.112 16.449-59.558 0-16.443-16.436-16.444-43.106 0-59.554zM470.372 606.621c0-23.26 18.855-42.11 42.112-42.111 23.252 0 42.109 18.851 42.112 42.111 0 23.258-18.857 42.111-42.112 42.111-23.257 0.001-42.112-18.853-42.112-42.111zM698.892 546.636c-16.973-16.443-16.972-43.114 0-59.553 16.966-16.447 44.486-16.45 61.453 0 16.975 16.438 16.971 43.11 0 59.553-16.962 16.449-44.485 16.449-61.453 0zM819.686 341.958c-23.258 0-42.109-18.858-42.11-42.112 0-23.253 18.852-42.111 42.11-42.112 23.258 0 42.11 18.858 42.112 42.112 0 23.254-18.854 42.11-42.112 42.112zM759.7 112.488c-16.441 16.446-43.114 16.444-59.55 0-16.449-16.443-16.452-43.108 0-59.557 16.435-16.444 43.109-16.442 59.55 0 16.449 16.445 16.449 43.111 0 59.557z"  horiz-adv-x="1024" />

    
    <glyph glyph-name="mendian" unicode="&#58904;" d="M119.265 666.793v-152.896h46.768v44.070h696.128v-44.070h46.768v152.896zM827.356 526.399h-626.516v-501.771h-83.373v-98.933h787.866v98.933h-77.977v501.771zM493.412 20.132h-179.878v347.165h179.878v-347.165zM655.303 183.82h-77.348v78.248h77.348v-78.248zM655.303 290.848h-77.348v76.448h77.348v-76.448zM761.43 183.82h-77.347v78.248h77.347v-78.248zM761.43 290.848h-77.347v76.448h77.347v-76.448z"  horiz-adv-x="1024" />

    
    <glyph glyph-name="msnui-user-analysis" unicode="&#59173;" d="M453.815 636.149c0 103.002 83.47 186.468 186.42 186.468s186.478-83.468 186.478-186.468c0-102.945-83.529-186.413-186.478-186.413-102.948 0-186.42 83.468-186.42 186.413v0zM719.317 430.633h-158.161c-64.887 0-123.707-14.19-166.786-56.759h253.195v-383.125h-123.321c30.973-15.281 30.973-17.254 30.973-26.29 0-3.396 0-8.18-2.941-12.017 38.788-4.319 75.031-6.661 108.547-6.661 175.438 0 277.166 49.314 283.431 52.483l12.489 5.584h3.012v194.482c0 131.587-108.689 232.305-240.338 232.305h-0.1zM526.765-37.47c0-9.491-76.902-17.148-173.316-17.148-96.4 0-174.577 7.659-174.577 17.148 0 6.762 41.89 12.588 98.652 15.372v25.943h-212.857v354.747h555.611v-354.747h-215.040v-25.118c72.044-2.274 121.529-8.653 121.529-16.197v0zM577.705 33.316v297.987h-470.467v-297.987h470.467zM191.289 60.605h39.297v170.278h-39.297v-170.278zM250.234 60.605h27.29v127.709h-27.29v-127.709zM291.713 60.605h39.297v212.848h-39.297v-212.848zM440.166 60.605h39.297v170.278h-39.297v-170.278zM392.138 60.605h28.381v127.709h-28.381v-127.709zM350.658 60.605h27.29v185.559h-27.29v-185.559zM344.373 57.206z"  horiz-adv-x="1024" />

    
    <glyph glyph-name="jinlingyingcaiwangtubiao66" unicode="&#59105;" d="M962.304 90.624l-898.842 3.994c-0.026 0-0.051 0-0.077 0-10.573 0-19.149-8.55-19.2-19.123-0.051-10.598 8.499-19.226 19.123-19.277l432.256-1.92-0.922-209.357c-0.051-10.598 8.499-19.226 19.123-19.277 0.026 0 0.051 0 0.077 0 10.573 0 19.149 8.55 19.2 19.123l0.922 209.331 428.211-1.894c0.026 0 0.051 0 0.077 0 10.573 0 19.149 8.55 19.2 19.123 0.026 10.598-8.525 19.226-19.149 19.277zM824.115 750.464h-632.832c-40.269 0-73.062-32.768-73.062-73.062v-509.389h778.931v509.389c0 40.294-32.768 73.062-73.037 73.062zM412.954 545.613l-128.512-199.629c-3.686-5.709-9.856-8.806-16.179-8.806-3.558 0-7.142 0.973-10.368 3.046-8.909 5.76-11.469 17.613-5.76 26.547l128.512 199.629c5.734 8.909 17.587 11.52 26.547 5.76 8.909-5.734 11.494-17.613 5.76-26.547zM591.36 538.163l-128.486-199.603c-3.686-5.709-9.856-8.806-16.179-8.806-3.558 0-7.142 0.973-10.368 3.046-8.909 5.76-11.469 17.613-5.76 26.547l128.486 199.603c5.76 8.909 17.613 11.52 26.547 5.76 8.909-5.734 11.494-17.613 5.76-26.547z"  horiz-adv-x="1024" />

    
    <glyph glyph-name="qizi" unicode="&#58936;" d="M156.415726-71.639387c0-21.771707 17.028151-34.786079 37.94845-28.826226l277.558855 77.599715c20.920299 5.838223 55.09823 5.959853 76.140159 0.12163l281.572633-77.721345c21.163559-5.838223 38.07008 7.176149 38.07008 28.947856L867.705903 699.006058 156.415726 699.006058 156.415726-71.639387z"  horiz-adv-x="1024" />

    
    <glyph glyph-name="r2" unicode="&#58929;" d="M658.433 181.278c-12.408 17.377-24.819 34.746-37.227 52.124-14.892 17.371-29.783 29.78-44.677 37.227 37.228 7.445 64.531 22.338 84.388 42.195 17.372 19.855 27.3 44.672 27.3 79.42 0 14.89-2.481 32.262-7.443 44.673-4.966 14.893-12.413 27.301-24.824 37.228-9.926 9.927-22.335 19.856-37.228 24.819-12.408 4.966-24.817 7.448-37.227 9.929-14.89 2.482-32.264 2.482-52.12 2.482h-143.951c-19.855 0-32.264-4.963-42.191-12.411-7.447-7.443-12.409-22.335-12.409-42.191l0-337.54c0-17.374 4.963-32.267 12.409-39.712 7.445-9.927 19.855-14.89 32.264-14.89 12.408 0 24.819 4.963 32.262 12.411 7.447 9.926 12.411 22.335 12.411 39.709v141.465h32.262c14.892 0 29.783-2.479 39.711-7.445 9.927-4.963 19.855-12.408 29.785-22.335 9.927-9.927 22.335-27.301 34.745-49.636l34.746-59.565c7.443-14.893 14.892-24.822 19.853-32.264 4.964-7.448 9.927-12.411 17.376-17.374 7.447-4.966 14.892-7.445 24.817-7.445 7.448 0 14.892 2.482 22.338 4.963 7.447 2.482 12.411 7.445 14.89 12.408 2.482 4.966 4.964 12.411 4.964 17.377 0 4.963-2.481 14.89-9.926 29.78-7.442 19.851-17.371 37.225-27.298 54.599zM551.713 330.19c-14.893-2.481-32.266-4.963-54.602-4.963h-79.421v121.611h81.904c29.782 0 52.12-2.481 62.046-7.445 9.927-4.963 19.858-12.409 24.821-19.855 4.964-9.927 9.927-19.856 9.927-32.264 0-14.89-4.963-27.301-12.409-37.23s-19.855-17.372-32.264-19.855zM512.003 799.271c-282.938 0-511.271-228.334-511.271-511.271 0-282.934 228.334-511.27 511.271-511.27 282.934 0 511.27 228.335 511.27 511.27 0 282.938-230.818 511.271-511.27 511.271zM512.003-133.922c-233.3 0-421.925 188.623-421.925 421.921 0 233.3 188.625 421.923 421.925 421.923 233.296 0 421.919-188.625 421.919-421.923 0-233.296-191.103-421.921-421.919-421.921z"  horiz-adv-x="1024" />

    
    <glyph glyph-name="pinpai" unicode="&#58938;" d="M735.175407-4.20335 288.835849-4.20335c-22.565948 0-40.863686-19.787672-40.863686-45.89733 0-26.095331 18.296715-45.939285 40.863686-45.939285l446.338534 0c22.543436 0 40.850383 19.843954 40.850383 45.939285C776.025791-24.022745 757.718843-4.20335 735.175407-4.20335L735.175407-4.20335 735.175407-4.20335zM930.973792 515.170594c-3.385097 3.563152-7.218402 6.871501-11.634991 9.844206-15.180747 10.806113-33.586956 17.173125-53.461609 17.173125-51.80283 0-93.819782-43.068911-93.819782-96.140641 0-32.03767 15.334243-60.378136 38.854936-77.866439-16.534582-19.562545-77.126588-88.315418-105.916285-79.93147-44.393069 12.848633-54.079686 202.036459-54.750975 216.788441 44.706201 7.352455 78.908164 46.948265 78.908164 94.861508 0 53.115732-42.016953 96.139617-93.819782 96.139617-51.835575 0-93.841272-43.023886-93.841272-96.139617 0-36.770462 20.134573-68.65259 49.685609-84.871993-10.447956-26.725688-52.28583-128.866996-80.780815-128.528282-29.53057 0.381693-71.275323 106.520035-80.18832 130.128733 28.025287 16.658402 46.960545 47.667649 46.960545 83.271542 0 53.115732-42.029232 96.139617-93.852528 96.139617-51.826366 0-93.821829-43.023886-93.821829-96.139617 0-42.263569 26.602891-78.045517 63.563688-90.959641 5.325285-2.242064 11.18883-3.744277 17.724687-4.374634 0 0-18.386766-198.110033-60.502979-208.534454-36.07666-8.945743-83.942831 51.995211-98.148367 71.434959 24.068162 17.418718 39.83117 46.051849 39.83117 78.582753 0 53.071729-42.015929 96.140641-93.842295 96.140641-7.856945 0-15.481599-1.121544-22.779819-2.960425-13.866822-1.457188-45.099151-9.05933-59.997466-47.957245-7.028067-13.487176-11.041474-28.877701-11.041474-45.222971 0-21.972431 7.241938-42.128493 19.337417-58.337663 6.266727-9.305947 14.932084-18.004049 26.927279-24.483624 13.945617-8.428973 30.16809-13.386892 47.554062-13.386892 4.876054 0 9.618055 0.528026 14.282285 1.255597 3.397377-26.27441 43.206034-283.553031 98.530061-286.422382 0.189312 0.155543 417.505859 0 482.134809 0 60.142775 0 102.473883 277.949406 102.473883 277.949406l0.974188 7.691169c3.082198-0.281409 6.220678-0.472767 9.361205-0.472767 16.915251 0 32.698726 4.663206 46.387493 12.646018 16.311501 5.602601 31.546483 17.624403 38.069037 41.882899 5.943362 12.598946 9.361205 26.676569 9.361205 41.678238C959.69595 473.199691 948.653453 497.706851 930.973792 515.170594L930.973792 515.170594 930.973792 515.170594zM930.973792 515.170594"  horiz-adv-x="1024" />

    
    <glyph glyph-name="000" unicode="&#58930;" d="M1024 108c0-88.376-71.626-160-160-160l-544 0 0 1c-70.688 0-128 57.312-128 128s57.312 128 128 128L320 206l0.188 0c1.126 87.5 72.126 158 159.812 158 18.812 0 36.562-3.876 53.312-9.75C565 416.75 629.126 460 704 460c106.062 0 192-85.938 192-192 0-1.126-0.312-2.126-0.312-3.188C968.876 250.124 1024 185.5 1024 108zM264 261l1.938 8.126c30.376 99 129.812 169.5 237.938 157.5 45.626 58 114.126 92.75 188.75 96.062C666.562 597.75 596 652 512 652c-74.876 0-139-43.25-170.688-105.75-16.75 5.876-34.5 9.75-53.312 9.75-87.688 0-158.688-70.5-159.812-158L128 398l0-1c-70.688 0-128-57.312-128-128s57.312-128 128-128l0-1 10.876 0c19.126 54.876 62.376 98.626 117.126 118L264 261z"  horiz-adv-x="1025" />

    
    <glyph glyph-name="yingxiao" unicode="&#59081;" d="M738.156978 819.80095 738.156978 819.80095c8.686999 0 24.735998-1.4 34.970997-10.791999 2.333-2.116 9.414999-8.612999 9.414999-24.627998 0-18.005998-9.921999-46.342995-37.752996-71.874993-34.082997-31.249997-90.278991-54.858995-130.711987-54.858995-11.690999 0-17.180998 2.116-18.102998 2.116-0.074 0-0.125-0.028-0.125-0.028-7.486999 14.990999 8.891999 80.084992 55.979995 123.309988C676.902984 806.055951 709.187981 819.80095 738.156978 819.80095M738.156978 895.999943c-46.672995 0-98.14199-19.655998-139.113986-57.191994-70.407993-64.661994-111.487989-183.806982-56.696994-234.058977 17.618998-16.207998 43.031996-23.262998 71.732993-23.262998 60.519994 0 135.671987 31.437997 183.494982 75.259993 70.378993 64.592994 83.110992 157.768985 28.302997 208.02598C802.948972 885.798944 771.795975 896.027943 738.156978 895.999943L738.156978 895.999943 738.156978 895.999943zM342.654017 819.80095c28.968997 0 61.264994-13.744999 86.381992-36.756996 47.440995-43.543996 63.677994-109.257989 57.106994-122.257988-0.074-0.028-5.114-3.14-19.376998-3.14-40.448996 0-96.582991 23.603998-130.631987 54.858995-27.864997 25.531998-37.780996 53.897995-37.780996 71.869993 0 16.019998 7.042999 22.516998 9.380999 24.633998C318.004019 818.40095 334.030017 819.80095 342.654017 819.80095M342.654017 895.999943c-33.621997 0-64.735994-10.205999-87.701991-31.226997-54.739995-50.256995-42.013996-143.431986 28.399997-208.03098 47.759995-43.816996 122.911988-75.259993 183.414982-75.259993 28.717997 0 54.125995 7.059999 71.755993 23.262998 54.819995 50.256995 13.704999 169.402983-56.702994 234.058977C440.847007 876.343945 389.361012 895.999943 342.654017 895.999943L342.654017 895.999943 342.654017 895.999943zM938.677958 544.131977c0 41.085996-15.189999 67.443993-56.889994 67.443993L540.444997 611.57597l0-341.342967 398.232961 0L938.677958 544.131977zM540.444997 213.343009 540.444997-127.999957l341.342967 0c41.700996 0 56.889994 15.780998 56.889994 56.889994L938.677958 213.343009 540.444997 213.343009zM483.555003 270.233004 483.555003 611.57597l-322.386969 7.224999c-41.745996 0-75.845993-33.581997-75.845993-74.668993l0-273.898973L483.555003 270.233004zM85.322042 208.06901l0-261.365974c0-41.114996 34.099997-74.702993 75.845993-74.702993l322.386969 0L483.555003 213.343009 85.322042 208.06901 85.322042 208.06901z"  horiz-adv-x="1024" />

    
    <glyph glyph-name="yonghuuser" unicode="&#58921;" d="M859.92 38.509c-1.445 4.541-5.677 14.347-8.154 19.817-1.548 3.509-3.096 7.019-4.438 9.702-0.723 1.548-1.445 2.993-2.064 4.232-46.963 104.351-108.686 184.962-178.563 233.267l-7.741 5.367-5.677-7.535c-34.268-45.002-86.185-70.806-142.644-70.806s-108.376 25.804-142.644 70.806l-5.677 7.535-7.741-5.367c-69.567-48.098-131.187-128.4-178.047-232.235-1.239-1.858-2.271-4.129-3.509-6.812-1.239-2.89-2.993-6.915-4.954-11.973-3.406-8.464-6.709-17.031-6.812-17.134l-2.271-5.78 4.232-4.541c11.354-12.179 23.533-23.946 36.229-34.99l0.516-0.516c2.58-2.271 5.161-4.335 7.535-6.399 2.271-1.858 4.645-3.819 6.915-5.677l1.239-1.032c0.723-0.619 1.548-1.239 2.374-1.858l1.239-0.929c4.438-3.406 8.36-6.399 12.179-9.186l2.374-2.374h0.929c4.541-3.2 9.083-6.399 13.728-9.496l0.103-0.103c0.103 0 0.103-0.103 0.206-0.103l0.103-0.103c2.993-1.961 6.090-4.025 9.186-5.883 0.413-0.31 0.929-0.619 1.342-0.826l0.929-0.516c1.961-1.239 4.335-2.684 6.709-4.129 2.684-1.651 5.264-3.096 7.741-4.541v0c0.103-0.103 0.31-0.206 0.413-0.206l0.723-0.413c5.986-3.406 11.973-6.709 17.959-9.702 2.58-1.342 5.264-2.684 8.051-4.025l0.206-0.103c0.103-0.103 0.206-0.103 0.31-0.206l2.064-1.032c0.31-0.103 0.619-0.31 0.826-0.413l2.477-1.239c1.342-0.619 2.684-1.239 4.025-1.858l1.135-0.516c0.826-0.31 1.548-0.723 2.374-1.032l1.239-0.516c4.748-2.168 9.186-4.025 13.418-5.78l0.516-0.206c0.31-0.103 0.619-0.206 0.929-0.413 4.438-1.755 9.186-3.613 14.657-5.677l1.548-0.619c0.31-0.103 0.619-0.206 0.929-0.31l2.064-0.723c0.103 0 0.206-0.103 0.31-0.103l1.342-0.516c0.516-0.206 1.032-0.31 1.548-0.516v-0.103l6.709-2.271c0.413-0.103 0.826-0.31 1.239-0.413l0.206-0.103c2.477-0.826 5.058-1.651 7.638-2.477l2.374-0.723c0.103 0 0.206 0 0.206-0.103l1.135-0.31c0.413-0.103 0.826-0.206 1.342-0.413l1.445-0.413c5.78-1.651 10.838-3.096 15.586-4.335l1.239-0.31c2.684-0.723 5.574-1.342 8.464-2.064l0.826-0.206c2.993-0.723 5.986-1.342 9.393-2.064 4.025-0.826 8.154-1.651 12.179-2.374l0.826-0.103c3.613-0.619 6.812-1.239 9.805-1.651 0.723-0.103 1.445-0.206 2.168-0.31l2.271-0.31c1.961-0.31 4.025-0.619 5.986-0.929 2.684-0.413 5.47-0.723 8.154-1.032l2.271-0.31c1.239-0.103 2.58-0.31 3.819-0.413l1.445-0.103c2.477-0.206 4.851-0.516 7.328-0.723 3.2-0.31 5.78-0.516 8.154-0.619h0.31c0.516 0 1.032-0.103 1.651-0.103h0.413c3.2-0.206 6.090-0.413 8.773-0.516l1.651-0.103c0.516 0 1.032 0 1.548-0.103h1.032c2.477-0.103 5.47-0.206 8.36-0.31 3.716-0.103 7.122-0.103 10.322-0.103 3.2 0 6.606 0 10.322 0.103 2.89 0.103 5.677 0.206 8.36 0.31h1.032c0.516 0 1.032 0 1.548 0.103l1.548 0.103c2.684 0.103 5.574 0.31 8.773 0.516h0.723c0.413 0 0.929 0.103 1.342 0.103h0.31c2.993 0.206 5.986 0.413 8.154 0.619 3.2 0.31 6.503 0.619 10.012 1.032l1.032 0.103c0.516 0 1.032 0.103 1.548 0.206 5.161 0.619 10.631 1.342 16.824 2.271l1.548 0.206c0.516 0.103 1.135 0.206 1.651 0.206l2.168 0.31c2.993 0.516 6.193 1.032 9.289 1.651 4.025 0.723 8.154 1.548 12.179 2.374 3.406 0.723 6.503 1.445 9.393 2.064l0.826 0.206c1.135 0.206 2.168 0.516 3.2 0.826l2.993 0.723c1.135 0.31 2.374 0.619 3.509 0.826 2.58 0.619 5.161 1.342 7.844 2.064l1.135 0.31c0.516 0.103 1.135 0.31 1.651 0.413 0.516 0.103 0.929 0.31 1.445 0.413l0.929 0.31c5.78 1.651 11.457 3.406 16.824 5.161l1.548 0.516c2.684 0.929 5.47 1.858 8.36 2.89s5.883 2.168 9.083 3.303l1.961 0.723c2.374 0.929 4.954 1.858 7.432 2.89l1.755 0.723c5.78 2.374 11.767 4.954 17.753 7.638l0.516 0.206c0.31 0.103 0.516 0.206 0.826 0.31l1.135 0.516c2.89 1.342 5.78 2.684 8.464 4.025 9.186 4.438 18.372 9.289 27.352 14.45l1.239 0.619 0.206 0.206c1.135 0.619 2.271 1.342 3.406 1.961l2.168 1.239c0.723 0.413 1.445 0.826 2.168 1.239 0.413 0.206 0.723 0.413 1.135 0.619l0.619 0.413c2.684 1.651 5.058 3.096 7.225 4.438 20.333 12.799 39.841 27.249 58.007 43.041l0.516 0.516c12.592 10.941 24.772 22.707 36.229 34.99 4.851 4.645 3.096 9.909 2.58 11.663zM755.259 7.442c-1.548-1.135-3.2-2.271-4.645-3.303-0.31-0.206-0.619-0.413-0.929-0.619l-1.032-0.723c-4.129-2.787-8.257-5.574-12.489-8.257l-0.826-0.516c-4.232-2.684-8.67-5.367-13.005-7.844l-0.516-0.31c-2.271-1.342-4.438-2.58-6.812-3.819l-0.103-0.103c-0.826-0.413-1.651-0.929-2.374-1.342l-2.477-1.342c-0.619-0.31-1.239-0.723-1.858-1.032l-0.206-0.103c-2.168-1.135-4.438-2.374-6.812-3.509l-0.619-0.31c-4.541-2.271-9.083-4.541-13.728-6.606l-0.826-0.413c-4.541-2.064-9.186-4.129-13.831-6.090l-0.826-0.31c-1.858-0.723-3.613-1.445-5.47-2.168l-0.826-0.31c-0.206-0.103-0.516-0.206-0.723-0.31l-0.516-0.206c-1.445-0.619-2.993-1.135-4.541-1.755l-1.239-0.516c-0.31-0.103-0.723-0.31-1.032-0.413l-0.723-0.206c-2.271-0.826-4.645-1.651-7.019-2.477l-0.929-0.31c-2.477-0.826-4.748-1.651-7.019-2.374h-0.103c-2.168-0.723-4.541-1.445-7.122-2.271l-1.239-0.413c-4.748-1.445-9.496-2.787-14.347-4.025l-1.239-0.31c-0.619-0.206-1.239-0.31-1.858-0.516l-2.477-0.619c-0.929-0.206-1.858-0.516-2.89-0.723l-0.826-0.206c-0.619-0.206-1.342-0.31-1.961-0.413l-2.064-0.516c-0.929-0.206-1.755-0.413-2.684-0.619l-2.477-0.516c-1.961-0.413-3.922-0.826-5.78-1.239l-1.342-0.31c-1.239-0.206-2.58-0.516-3.819-0.723l-1.445-0.206c-0.413-0.103-0.826-0.103-1.239-0.206l-0.619-0.103c-0.516-0.103-1.135-0.206-1.651-0.31l-2.477-0.413c-1.032-0.206-2.064-0.413-3.096-0.516l-1.548-0.206c-0.619-0.103-1.239-0.206-1.755-0.31l-2.064-0.31c-1.032-0.206-2.168-0.31-3.2-0.516h-0.31c-2.271-0.31-4.645-0.619-7.432-0.929l-1.548-0.206c-2.477-0.31-4.851-0.516-7.328-0.826l-1.032-0.103c-2.271-0.206-4.438-0.413-6.709-0.619l-2.477-0.206c-2.064-0.206-4.232-0.31-6.296-0.413l-1.548-0.103c-0.516 0-0.929 0-1.445-0.103l-1.961-0.103c-1.135-0.103-2.271-0.103-3.406-0.206h-1.032c-0.929 0-1.858-0.103-2.684-0.103l-2.684-0.103c-0.723 0-1.342 0-2.064-0.103h-1.651c-2.993 0-5.367-0.103-7.638-0.103s-4.645 0-7.638 0.103h-1.755c-0.723 0-1.342 0-2.064 0.103l-2.684 0.103c-0.929 0-1.858 0-2.684 0.103h-1.032c-1.135 0-2.271 0.103-3.406 0.206l-1.858 0.103c-0.516 0-0.929 0-1.445 0.103l-1.548 0.103c-2.064 0.103-4.232 0.31-6.296 0.413l-2.477 0.206c-2.271 0.206-4.438 0.413-6.709 0.619l-1.032 0.103c-1.445 0.103-2.89 0.31-4.335 0.516l-1.961 0.206c-0.413 0-0.723 0.103-1.135 0.103l-1.548 0.206c-2.271 0.31-4.541 0.619-6.812 0.826-0.206 0-0.31 0-0.516 0.103h-0.103c-2.271 0.31-4.645 0.723-7.432 1.135l-1.548 0.206c-1.239 0.206-2.58 0.413-3.819 0.619l-2.064 0.31c-0.413 0.103-0.929 0.103-1.342 0.206l-0.723 0.103c-0.413 0.103-0.826 0.103-1.239 0.206l-1.342 0.31c-1.445 0.31-2.787 0.516-4.232 0.826l-1.342 0.206c-1.032 0.206-2.064 0.413-3.096 0.619l-2.271 0.516c-0.619 0.103-1.239 0.206-1.858 0.413l-1.135 0.206c-2.271 0.516-4.438 1.032-6.709 1.548l-0.826 0.206c-0.413 0.103-0.826 0.206-1.239 0.31l-1.755 0.413c-1.342 0.31-2.684 0.723-4.025 1.032l-1.445 0.413c-4.851 1.239-9.702 2.684-14.347 4.025l-1.445 0.413c-2.477 0.723-4.748 1.445-6.915 2.168h-0.103c-2.271 0.723-4.541 1.548-7.019 2.374l-1.755 0.619c-2.064 0.723-4.129 1.445-6.193 2.271l-0.723 0.206c-2.271 0.826-4.541 1.755-6.812 2.58l-0.413 0.206c-2.271 0.929-4.541 1.755-7.019 2.787l-0.826 0.31c-4.645 1.961-9.289 3.922-13.831 6.090l-0.826 0.413c-4.541 2.064-9.083 4.232-13.521 6.503l-0.826 0.413c-2.271 1.135-4.541 2.271-6.709 3.509l-1.032 0.516c-1.961 1.032-4.025 2.168-5.986 3.2l-0.206 0.103c-0.413 0.206-0.826 0.413-1.239 0.723l-1.858 1.032c-1.239 0.723-2.477 1.342-3.613 2.064l-0.516 0.31c-4.335 2.58-8.773 5.161-13.005 7.844l-0.619 0.413c-4.335 2.684-8.567 5.574-12.799 8.464l-0.413 0.31c-0.206 0.103-0.413 0.31-0.619 0.413l-0.619 0.516c-1.548 1.135-3.2 2.168-4.748 3.303l-36.435 29.932c33.339 91.655 78.031 164.422 129.742 211.385 37.57-42.525 93.41-67.606 151.314-67.606 58.11 0 113.95 25.081 151.52 67.606 51.917-46.55 96.403-119.317 129.845-211.179l-36.435-29.932zM510.742 286.433c109.099 0 197.967 88.765 197.967 197.967s-88.765 197.967-197.967 197.967c-109.099 0-197.967-88.765-197.967-197.967s88.765-197.967 197.967-197.967zM510.742 630.45c80.508 0 146.050-65.542 146.050-146.153s-65.542-146.153-146.153-146.153-146.050 65.645-146.050 146.153c0 80.611 65.542 146.153 146.153 146.153z"  horiz-adv-x="1024" />

    
    <glyph glyph-name="navicon04" unicode="&#58883;" d="M475.428572-127.999977l0 292.571422c0 110.445712-26.550857 235.593138-146.285711 251.465137C284.818291 421.888011 219.428578 420.571439 219.428578 420.571439l0-73.142856L37.156582 441.197724C23.113154 448.365724 21.869725 467.96801 34.889154 476.891438L219.428578 603.428578l0-79.213713c0 0 66.559999 1.097143 115.78514-6.070857C444.269716 502.198866 475.428572 457.142867 475.428572 457.142867L475.428572 676.571433l-73.142856 0 89.819427 183.295996C512 900.461714 540.964571 911.140571 569.490284 859.428572L658.285711 676.571433 585.142856 676.571433l0-511.999989c0 0 30.500571 48.786285 146.285711 67.071999C767.561137 237.348586 804.571422 237.7143 804.571422 237.7143L804.571422 310.857156l189.659424-94.866284c13.165714-6.582857 14.262857-25.014857 1.901714-33.060571L804.571422 54.857162l0 70.070856c0 0-51.199999-7.533714-88.356569-15.213714C595.821712 84.77259 585.142856-47.250265 585.142856-127.999977l0 0L475.428572-127.999977z"  horiz-adv-x="1024" />

    
    <glyph glyph-name="tongzhi" unicode="&#58931;" d="M488.890676 781.376403l20.955264 0c144.664797 0 261.940804-118.29522 261.940804-264.216637 0 0 0-10.467399 0-146.44842 0-102.221126 146.68685-265.732154 146.68685-265.732154L80.263022 104.979192c0 0 146.68992 163.511028 146.68992 265.732154 0 135.981021 0 146.44842 0 146.44842C226.952942 663.081183 344.221786 781.376403 488.890676 781.376403zM604.14463 62.70539l0-73.979922c0-52.535517-42.215474-95.120404-94.298689-95.120404l-20.955264 0c-52.079122 0-94.298689 42.584887-94.298689 95.120404l0 73.979922L604.14463 62.70539zM499.368308 865.928101c34.718733 0 62.865793-28.39163 62.865793-63.412239s-28.14706-63.412239-62.865793-63.412239-62.865793 28.39163-62.865793 63.412239S464.649576 865.928101 499.368308 865.928101z"  horiz-adv-x="1024" />

    
    <glyph glyph-name="34" unicode="&#58900;" d="M634.954 169.839c28.004 0 50.146 22.797 50.146 50.146 0 28.004-22.797 50.146-50.146 50.146h-68.389v5.868l92.478 51.454c24.092 13.674 33.219 43.629 19.537 68.389-13.674 24.092-43.629 33.219-68.389 19.537l-94.443-52.103-94.443 52.103c-24.092 13.674-54.717 4.564-68.389-19.537s-4.564-54.717 19.537-68.389l92.478-51.454v-5.868h-68.389c-28.004 0-50.146-22.797-50.146-50.146 0-28.004 22.797-50.146 50.146-50.146h68.389v-18.881h-68.389c-28.004 0-50.146-22.797-50.146-50.146s22.797-50.146 50.146-50.146h68.389v-29.301c0-28.004 22.797-50.146 50.146-50.146 28.004 0 50.146 22.797 50.146 50.146v29.301h68.389c28.004 0 50.146 22.797 50.146 50.146s-22.797 50.146-50.146 50.146h-68.389v18.881h69.689zM780.842 518.291c0 3.911 0 7.814 0 11.724 0 144.587-117.233 261.829-261.829 261.829s-261.829-117.233-261.829-261.829c0-3.911 0-7.814 0-11.724h-1.963c-116.579 0-211.020-95.094-211.020-211.020s95.094-211.020 211.020-211.020c28.004 0 50.146 22.797 50.146 50.146 0 28.004-22.797 50.146-50.146 50.146-61.218 0-110.714 49.499-110.714 110.714s49.499 110.714 110.714 110.714h61.874c15.633 0 30.617 7.814 40.381 20.189 9.763 13.029 12.368 29.301 7.814 44.286-5.212 17.582-7.814 32.56-7.814 47.54 0 89.23 72.295 161.525 161.525 161.525 89.23 0 161.525-72.295 161.525-161.525 0-14.326-2.606-29.301-7.814-47.54-4.564-14.967-1.963-31.913 7.814-44.286 9.763-13.029 24.754-20.189 40.381-20.189h56.013c61.218 0 110.714-49.499 110.714-110.714 0-29.301-11.724-57.315-33.219-78.804-1.298-1.298-2.606-3.254-3.911-4.564-13.674-17.582-33.873-27.356-54.055-27.356v0c-1.298 0-5.868 0.66-6.505 0.66-1.963 0-4.564 0-6.505 0-0.66 0-5.868-0.66-7.814-0.66-26.698-1.298-48.203-22.797-48.203-50.146 0-28.004 22.797-50.146 50.146-50.146 3.254 0 5.868 0 9.119 0.66 3.254-0.66 5.868-0.66 9.119-0.66 51.454 0 99.648 23.451 132.86 63.825 39.089 39.73 60.571 91.836 60.571 147.849-1.298 113.981-93.792 207.774-208.416 210.378z"  horiz-adv-x="1024" />

    
    <glyph glyph-name="tuichu" unicode="&#58893;" d="M752.881664 701.415424c28.171264-20.035584 53.215232-42.728448 75.127808-68.08576 21.912576-25.35424 40.691712-52.74624 56.346624-82.172928 15.648768-29.425664 27.547648-60.567552 35.683328-93.438976 8.141824-32.866304 12.209152-66.205696 12.209152-100.011008 0-58.227712-11.113472-112.852992-33.339392-163.87584-22.2208-51.024896-52.273152-95.475712-90.15296-133.351424-37.874688-37.878784-82.326528-67.931136-133.351424-90.157056-51.022848-22.221824-105.648128-33.333248-163.874816-33.333248-57.595904 0-111.906816 11.112448-162.935808 33.333248-51.022848 22.22592-95.629312 52.279296-133.818368 90.157056-38.193152 37.874688-68.240384 82.326528-90.15296 133.351424-21.912576 51.022848-32.8704 105.648128-32.8704 163.87584 0 33.178624 3.912704 65.736704 11.74016 97.666048 7.821312 31.930368 18.934784 62.290944 33.338368 91.088896 14.399488 28.803072 32.238592 55.724032 53.528576 80.76288 21.284864 25.043968 45.074432 47.584256 71.36768 67.618816 13.776896 10.016768 28.643328 13.771776 44.61056 11.267072 15.963136-2.50368 28.952576-10.331136 38.970368-23.4752 10.016768-13.149184 13.776896-27.86304 11.272192-44.138496-2.504704-16.280576-10.331136-29.425664-23.48032-39.442432-39.443456-28.797952-69.650432-64.17408-90.621952-106.121216-20.975616-41.946112-31.461376-87.021568-31.461376-135.226368 0-41.324544 7.827456-80.294912 23.48032-116.92032 15.648768-36.624384 37.093376-68.554752 64.32768-95.789056 27.234304-27.234304 59.163648-48.833536 95.789056-64.795648 36.625408-15.967232 75.595776-23.948288 116.916224-23.948288 41.319424 0 80.293888 7.981056 116.919296 23.948288 36.624384 15.962112 68.554752 37.561344 95.789056 64.795648 27.234304 27.234304 48.833536 59.164672 64.796672 95.789056 15.966208 36.625408 23.948288 75.595776 23.948288 116.92032 0 48.832512-11.268096 95.002624-33.80736 138.513408-22.539264 43.51488-54.155264 79.353856-94.849024 107.529216-13.775872 9.39008-22.070272 22.224896-24.88832 38.5024-2.813952 16.280576 0.472064 31.301632 9.862144 45.078528 9.391104 13.145088 22.22592 21.13024 38.5024 23.944192C724.078592 714.092544 739.104768 710.805504 752.881664 701.415424L752.881664 701.415424zM511.529984 354.888704c-16.277504 0-30.206976 5.789696-41.78944 17.371136-11.580416 11.582464-17.371136 25.511936-17.371136 41.792512L452.369408 770.911232c0 16.27648 5.789696 30.360576 17.371136 42.256384 11.582464 11.894784 25.511936 17.844224 41.78944 17.844224 16.903168 0 31.147008-5.94944 42.728448-17.844224 11.585536-11.894784 17.376256-25.979904 17.376256-42.256384l0-356.85888c0-16.280576-5.79072-30.211072-17.376256-41.792512C542.676992 360.6784 528.433152 354.888704 511.529984 354.888704L511.529984 354.888704zM511.529984 354.888704"  horiz-adv-x="1024" />

    
    <glyph glyph-name="a536" unicode="&#58988;" d="M56.12885333 555.80899555c0.97393778 2.78983111 1.97518222 5.57056 2.91498667 8.3717689 7.59125333 22.61219555 27.34990222 37.75374222 51.42528 39.39669333 21.85671111 1.49276445 43.88636445-11.34592 54.07630222-31.51644445 10.39246222-20.57102222 7.42968889-44.92629333-7.64814222-62.75754666-1.71349333-2.02524445-3.47932445-4.00497778-5.53415111-6.36700445 42.54151111-26.03918222 84.70072889-51.85080889 126.86449778-77.65105777 16.01080889-9.79626667 31.96472889-19.68355555 48.08248888-29.30005334 9.05216-5.40216889 16.12913778-3.80017778 21.09667556 5.23377778 48.49664 88.19825778 96.84309333 176.47843555 145.66286222 265.51637333-21.20590222 10.72696889-34.69767111 27.02677333-35.93329778 51.31377778-0.86243555 16.96426667 5.09496889 31.6416 17.26464 43.50634667 23.97297778 23.37223111 63.18307555 21.06254222 84.15459556-4.77866667 24.03214222-29.61635555 15.43964445-64.25713778-22.90574222-90.39644445 12.52920889-22.86023111 25.08572445-45.78872889 37.65816889-68.70812444 35.09361778-63.97496889 70.18951111-127.94766222 105.29450667-191.91580444 8.11463111-14.78428445 13.33475555-16.19968 27.61614222-7.45927112 54.38122667 33.27772445 108.75335111 66.56910222 163.1232 99.86730667 2.48945778 1.52462222 4.91747555 3.14709333 7.81198222 5.00394667-11.18208 11.17980445-18.31822222 23.98435555-19.17383111 39.60604444-1.60881778 29.33646222 18.48206222 54.88867555 46.80590222 59.77656889 29.35239111 5.06538667 56.65905778-11.68042667 65.35623111-40.05660444 0.68949333-2.24824889 1.51552-4.45781333 2.27783111-6.68330667 0-6.56270222 0-13.12312889 0-19.68583111-9.28654222-29.57767111-28.23509333-46.81272889-60.78236444-47.08124445-1.11502222-3.37009778-2.33472-6.69923555-3.32458667-10.09436444-31.82364445-109.17432889-63.62680889-218.35548445-95.43452444-327.53436444-4.13696-14.19491555-9.10677333-18.04060445-23.50421334-18.04288-183.10940445-0.02048-366.21880889-0.03413333-549.33048888-0.03640889-15.36682667 0-20.20920889 3.64316445-24.40078223 18.04515555-25.79342222 88.60558222-51.58456889 177.21116445-77.40302222 265.80764445-6.98595555 23.97525333-14.06520889 47.9232-21.11488 71.93031111-24.31658667 0.01820445-42.70990222 9.59601778-54.24241778 30.70407111-2.80348445 5.13137778-4.53290667 10.85212445-6.75612444 16.30208C56.12885333 542.68586667 56.12885333 549.2462933300001 56.12885333 555.80899555zM514.26417778 76.14236444999995c85.58592 0 171.17184 0.06144 256.75776-0.04096 22.89208889-0.02730667 41.17390222-16.16327111 43.70659555-37.97674667 2.53496889-21.84305778-11.94894222-41.94076445-33.95128888-46.87872-3.16302222-0.70997333-6.49443555-0.92387555-9.74848-0.92387556-171.17184-0.04096-342.34368-0.05916445-513.51552-0.00227555-19.56750222 0.00682667-35.89233778 11.66904889-41.72686223 29.25909333-5.84362667 17.61962667-0.48696889 37.56032 15.25987556 47.52497778 8.0896 5.12 18.73009778 8.61752889 28.25102222 8.69034667 84.98517333 0.65536 169.97717333 0.38229333 254.96689778 0.38229333C514.26417778 76.16284444999997 514.26417778 76.15374222000003 514.26417778 76.14236444999995z"  horiz-adv-x="1024" />

    
    <glyph glyph-name="gexinghua" unicode="&#59013;" d="M348.672 428.544m-44.544 0a8.7 8.7 0 1 0 89.088 0 8.7 8.7 0 1 0-89.088 0ZM586.24 547.328m-44.544 0a8.7 8.7 0 1 0 89.088 0 8.7 8.7 0 1 0-89.088 0ZM437.76 547.328m-44.544 0a8.7 8.7 0 1 0 89.088 0 8.7 8.7 0 1 0-89.088 0ZM512 855.552C251.392 855.552 40.448 644.608 40.448 384s210.944-471.552 471.552-471.552 471.552 210.944 471.552 471.552S772.608 855.552 512 855.552zM630.784 265.216l-52.736 0c-24.576 0-44.544-19.968-44.544-44.544 0-11.264 4.608-21.504 11.264-29.184 7.168-8.192 11.776-18.432 11.776-30.208 0-24.576-19.968-44.544-44.544-44.544-147.456 0-267.264 119.808-267.264 267.264S364.544 651.264 512 651.264s267.264-106.496 267.264-237.568C779.264 331.776 712.704 265.216 630.784 265.216zM675.328 428.544m-44.544 0a8.7 8.7 0 1 0 89.088 0 8.7 8.7 0 1 0-89.088 0Z"  horiz-adv-x="1024" />

    
    <glyph glyph-name="lijizhuce" unicode="&#58944;" d="M710.291 866.97c-267.841 0-484.953-217.111-484.953-484.953s217.111-484.953 484.953-484.953 484.953 217.111 484.953 484.953-217.322 484.953-484.953 484.953zM863.315 345.066l-193.105-193.105c-20.459-20.459-53.443-20.459-73.902 0v0c-20.459 20.459-20.459 53.443 0 73.902l156.155 156.155-156.155 156.155c-20.459 20.459-20.459 53.443 0 73.902s53.443 20.459 73.902 0l193.105-193.105c20.459-20.459 20.459-53.652 0-73.902z"  horiz-adv-x="1449" />

    
    <glyph glyph-name="tubiao07" unicode="&#58913;" d="M77.913043 678.956522l0-422.956522c0-83.478261 66.782609-150.26087 150.26087-150.26087l222.608696 0 5.565217-189.217391 222.608696 189.217391 250.434783 0c83.478261 0 150.26087 66.782609 150.26087 150.26087L1079.652174 678.956522c0 83.478261-66.782609 150.26087-150.26087 150.26087L228.173913 829.217391C144.695652 823.652174 77.913043 756.869565 77.913043 678.956522L77.913043 678.956522zM723.478261 439.652174c0 38.956522 33.391304 72.347826 72.347826 72.347826 38.956522 0 72.347826-33.391304 72.347826-72.347826S834.782609 372.869565 795.826087 372.869565C756.869565 372.869565 723.478261 400.695652 723.478261 439.652174L723.478261 439.652174zM506.434783 439.652174c0 38.956522 33.391304 72.347826 72.347826 72.347826 38.956522 0 72.347826-33.391304 72.347826-72.347826s-33.391304-72.347826-72.347826-72.347826C539.826087 372.869565 506.434783 400.695652 506.434783 439.652174L506.434783 439.652174zM294.956522 439.652174c0 38.956522 33.391304 72.347826 72.347826 72.347826 38.956522 0 72.347826-33.391304 72.347826-72.347826S406.26087 372.869565 367.304348 372.869565C328.347826 372.869565 294.956522 400.695652 294.956522 439.652174L294.956522 439.652174zM294.956522 439.652174"  horiz-adv-x="1164" />

    
    <glyph glyph-name="siglypharrowresize2" unicode="&#58958;" d="M324.8 451.2 442.752 570.368 252.032 764.032 381.12 894.848 3.328 894.848 3.328 511.744 134.272 644.608 324.8 451.2ZM1024.222643 261.376 885.248 127.168 691.136 322.56 570.752 202.176 765.248 6.592 637.504-126.808589 1024.222643-126.808589 1024.222643 261.376Z"  horiz-adv-x="1025" />

    
    <glyph glyph-name="siglypharrowresize4" unicode="&#58959;" d="M903.606574-128 1023.904018-7.638568 829.508467 187.972755 961.0678 320.10798 575.988002 320.10798 575.988002-66.82747 709.530963 67.355371 903.606574-128ZM448.011998 833.995626 314.469037 699.876773 120.393426 895.168156 0.095982 774.806724 194.491533 579.259389 66.77148 453.394988 448.011998 453.394988 448.011998 833.995626Z"  horiz-adv-x="1024" />

    
    <glyph glyph-name="gw" unicode="&#58924;" d="M969.334725-127.836754C969.171478-127.836754 969.023072-127.821913 968.830145-127.836754L54.591072-127.836754C47.675362-127.836754 41.071304-124.957681 36.366841-119.911884 31.647536-114.836406 29.243362-108.054261 29.718261-101.153391L79.582609 673.079652C80.487884 686.183884 91.351188 696.349681 104.45542 696.349681L314.61287 696.349681 314.61287 698.397681C314.61287 807.283014 403.018203 895.836754 511.710609 895.836754 620.388174 895.836754 708.808348 807.283014 708.808348 698.397681 708.808348 697.670493 708.452174 697.062029 708.392812 696.349681L918.965797 696.349681C932.070029 696.349681 942.933333 686.183884 943.838609 673.079652L993.361623-96.211478C993.955246-98.333681 994.266899-100.544928 994.266899-102.860058 994.266899-116.676638 983.106783-127.836754 969.334725-127.836754ZM658.929159 698.397681C658.929159 779.724058 592.88858 845.898203 511.710609 845.898203 430.517797 845.898203 364.477217 779.724058 364.477217 698.397681L364.477217 696.349681 659.344696 696.349681C659.285333 697.062029 658.929159 697.670493 658.929159 698.397681ZM895.695768 646.41113 708.808348 646.41113 708.808348 589.972406C720.858899 581.795246 729.273507 568.646493 729.273507 552.96 729.273507 527.86458 708.956754 507.503304 683.876174 507.503304 658.795594 507.503304 638.464 527.86458 638.464 552.96 638.464 568.646493 646.878609 581.795246 658.929159 589.972406L658.929159 646.41113 364.477217 646.41113 364.477217 589.972406C376.527768 581.795246 384.942377 568.646493 384.942377 552.96 384.942377 527.86458 364.625623 507.503304 339.545043 507.503304 314.464464 507.503304 294.14771 527.86458 294.14771 552.96 294.14771 568.646493 302.562319 581.795246 314.61287 589.972406L314.61287 646.41113 127.74029 646.41113 81.304116 174.406493 942.117101 174.406493 895.695768 646.41113Z"  horiz-adv-x="1024" />

    
    <glyph glyph-name="cart" unicode="&#58925;" d="M1001.633684 701.278316c-221.076211 0.107789-442.152421 0.053895-663.228632 0.053895-17.300211 0-34.600421 0-53.301895 0-4.527158 31.043368-7.653053 56.589474-12.018526 81.973895C263.006316 841.620211 244.628211 857.411368 186.206316 858.219789c-30.666105 0.431158-61.332211 0.107789-91.998316 0C62.032842 858.112 35.247158 849.434947 33.953684 811.277474 32.768 775.760842 45.433263 747.142737 84.075789 739.435789 101.214316 735.986526 119.430737 735.393684 136.946526 736.579368c27.540211 1.940211 39.720421-7.491368 44.247579-36.540632 9.862737-63.649684 24.360421-126.544842 36.756211-189.817263 19.563789-99.597474 37.672421-199.518316 59.068632-298.738526 9.269895-42.954105 23.821474-88.602947 79.602526-88.980211 193.643789-1.347368 387.287579-0.269474 580.931368-0.700632 32.444632-0.053895 48.074105 17.030737 50.068211 46.565053 2.263579 33.145263-20.048842 44.840421-48.882526 47.373474-12.826947 1.131789-25.815579 0.970105-38.696421 0.970105-146.863158 0.053895-293.726316-0.754526-440.535579 0.323368-94.100211 0.700632-75.776-18.000842-94.369684 84.399158-0.485053 2.802526 1.509053 6.090105 3.826526 14.551579 15.898947 0 33.306947 0 50.714947 0 169.445053 0 338.890105 1.131789 508.335158-0.646737 53.301895-0.592842 85.099789 21.935158 102.076632 70.440421 21.773474 62.356211 44.139789 124.496842 66.021053 186.799158C1134.376421 681.660632 1120.094316 701.224421 1001.633684 701.278316zM394.24 88.656842c-53.301895 0.377263-98.627368-44.517053-98.573474-97.765053 0.053895-53.625263 43.654737-97.064421 98.465684-98.250105 56.427789-1.185684 103.693474 43.546947 103.693474 98.196211C497.879579 45.864421 453.039158 88.225684 394.24 88.656842zM853.962105 85.099789c-54.918737-0.323368-99.489684-44.247579-98.950737-97.603368 0.538947-52.978526 46.457263-96.956632 100.998737-96.687158 58.044632 0.269474 102.184421 44.624842 100.837053 101.214316C955.553684 45.702737 911.683368 85.423158 853.962105 85.099789z"  horiz-adv-x="1132" />

    
    <glyph glyph-name="iconrx" unicode="&#58907;" d="M809.537 399.16c0 164.356-133.264 297.564-297.565 297.564-164.328 0-297.537-133.208-297.537-297.564 0-164.355 133.209-297.563 297.537-297.563 164.301 0 297.565 133.208 297.565 297.563zM915.226 454.889c-27.264 198.162-197.665 351.306-403.2 351.306-205.531 0-375.953-153.14-403.225-351.297-26.396-4.822-46.412-27.924-46.412-55.737 0-31.313 25.365-56.702 56.649-56.702 31.312 0 56.676 25.39 56.676 56.702 0 25.032-16.215 46.246-38.715 53.756 26.196 183.529 184.371 325.078 375.026 325.078 190.627 0 348.796-141.541 374.996-325.060-22.516-7.496-38.737-28.723-38.737-53.774 0-25.051 16.223-46.296 38.741-53.797-21.957-153.843-136.673-278.171-285.515-314.357-7.972 11.827-21.484 19.614-36.83 19.614l-105.31-0c-24.564 0-44.393-19.909-44.393-44.419 0-24.484 19.829-44.396 44.393-44.396h105.31c23.733 0 43.083 18.626 44.328 42 160.178 39.3 283.399 173.646 306.22 339.604 26.39 4.846 46.379 27.958 46.379 55.752 0.001 27.796-19.99 50.888-46.382 55.728z"  horiz-adv-x="1024" />

    
    <glyph glyph-name="xinkehu" unicode="&#59021;" d="M169.095209 646.579347c0 137.7759 113.51331 249.420653 253.573229 249.420653 140.060943 0 253.574253-111.644753 253.574253-249.383814 0-137.75748-113.531729-249.439072-253.574253-249.439072C282.607496 397.177114 169.095209 508.858706 169.095209 646.579347zM538.883277 314.036555 327.559291 314.036555c-180.877557 0-327.537801-153.380296-327.537801-342.565053l0-22.096251c0-77.336366 146.642848-77.375252 327.537801-77.375252l211.323986 0c180.894953 0 327.537801 2.854001 327.537801 77.375252l0 22.096251C866.421079 160.656259 719.77823 314.036555 538.883277 314.036555zM1010.8147 790.973992l-65.605184 0L945.209516 856.616014c0 7.28901-5.89322 13.146415-13.146415 13.146415l-78.770018 0c-7.253194 0-13.110599-5.857405-13.110599-13.146415l0-65.642023-65.658396 0c-7.235798 0-13.09218-5.820566-13.110599-13.127995l0-78.752622c0-7.234775 5.874801-13.146415 13.110599-13.146415l65.658396 0 0-65.623603c0-7.234775 5.857405-13.146415 13.110599-13.146415l78.770018 0c7.271614 0 13.146415 5.91164 13.146415 13.146415l0 65.623603 65.605184 0c7.290033 0 13.164834 5.91164 13.164834 13.146415L1023.979534 777.845996C1023.979534 785.153426 1018.050498 790.973992 1010.8147 790.973992z"  horiz-adv-x="1024" />

    
    <glyph glyph-name="renlianshibie" unicode="&#58901;" d="M939.292295 826.974316 894.047663 843.371789C887.310821 873.472 860.6464 896 828.525137 896 791.310821 896 761.210611 865.832421 761.210611 828.631579 761.210611 791.430737 791.391663 761.263158 828.605979 761.263158 846.121768 761.263158 861.953347 768.121263 873.944926 779.088842L916.427453 763.607579C945.261137 753.205895 970.106611 714.145684 970.106611 680.016842L970.106611 80.842105C970.106611 46.834526 945.247663 8.138105 916.387032-1.967158L878.081347-15.467789C865.7664-1.926737 848.277558 6.736842 828.525137 6.736842 791.310821 6.736842 761.210611-23.430737 761.210611-60.631579 761.210611-97.832421 791.391663-128 828.605979-128 858.301979-128 883.228295-108.665263 892.201768-81.987368L938.645558-65.549474C994.305347-46.066526 1037.475032 18.243368 1037.475032 80.842105L1037.475032 680.016842C1037.475032 742.480842 994.601768 807.033263 939.292295 826.974316M222.315789 6.736842C200.825263 6.736842 181.908211-3.516632 169.566316-19.186526L120.293053-1.738105C91.809684 8.245895 67.368421 43.479579 67.368421 73.633684L67.368421 687.225263C67.368421 717.514105 91.796211 753.098105 120.266105 763.351579L173.554526 782.672842C185.856 769.562947 203.061895 761.263158 222.450526 761.263158 259.651368 761.263158 289.751579 791.430737 289.751579 828.631579 289.751579 865.832421 259.557053 896 222.356211 896 192.256 896 167.060211 876.139789 158.410105 848.922947L97.428211 826.718316C42.496 806.938947 0 745.660632 0 687.225263L0 73.633684C0 15.090526 42.752-45.931789 98.007579-65.320421L160.808421-87.403789C171.183158-111.279158 194.775579-128 222.450526-128 259.651368-128 289.751579-97.832421 289.751579-60.631579 289.751579-23.430737 259.516632 6.736842 222.315789 6.736842M643.412884 391.860547C617.368253 391.860547 596.254989 412.973811 596.254989 439.018442 596.254989 465.063074 617.368253 486.176337 643.412884 486.176337 669.457516 486.176337 690.570779 465.063074 690.570779 439.018442 690.570779 412.973811 669.457516 391.860547 643.412884 391.860547M515.951832 167.173389C429.679832 167.173389 359.751411 242.531705 359.751411 323.373811L672.138779 323.373811C672.138779 242.531705 602.210358 167.173389 515.951832 167.173389M340.254989 439.018442C340.254989 465.063074 361.368253 486.176337 387.412884 486.176337 413.457516 486.176337 434.570779 465.063074 434.570779 439.018442 434.570779 412.973811 413.457516 391.860547 387.412884 391.860547 361.368253 391.860547 340.254989 412.973811 340.254989 439.018442M515.951832 688.847495C348.514358 688.847495 212.793937 553.1136 212.793937 385.6896 212.793937 218.252126 348.514358 82.531705 515.951832 82.531705 683.375832 82.531705 819.109726 218.252126 819.109726 385.6896 819.109726 553.1136 683.375832 688.847495 515.951832 688.847495"  horiz-adv-x="1038" />

    
    <glyph glyph-name="shezhi-copy" unicode="&#58948;" d="M905.86 467.979h-0.002l-71.797 15.945c-5.594 17.868-12.887 34.998-21.324 51.473l38.849 64.668c14.509 23.2 21.803 57.282 0 79.129l-39.588 39.547c-10.662 10.708-24.994 15.206-39.461 15.206-14.985 0-30.151-4.895-41.465-12.759l-62.972-40.112c-16.343 8.477-33.384 15.731-51.125 21.499l-16.121 72.621c-4.806 26.654-28.1 55.492-58.989 55.492h-55.932c-30.897 0-49.815-29.276-55.932-55.93l-17.963-71.746c-18.917-6.030-37.143-13.761-54.445-22.897l-64.538 41.075c-11.361 7.865-26.481 12.759-41.512 12.759-14.42 0-28.752-4.497-39.46-15.206l-39.543-39.547c-21.848-21.846-14.507-55.93 0-79.128l40.854-68.078c-7.644-15.469-14.461-31.374-19.705-48.064l-71.75-15.946c-26.654-4.812-55.495-28.099-55.495-58.995v-55.93c0-30.889 29.277-49.813 55.932-55.93l72.665-18.13c5.029-15.428 11.273-30.237 18.4-44.569l-40.899-68.165c-14.508-23.157-21.807-57.24 0-79.087l39.588-39.548c10.663-10.704 24.994-15.248 39.455-15.248 14.991 0 30.151 4.894 41.471 12.758l64.672 41.249c17.432-9.217 35.744-17.041 54.795-23.071l17.917-71.573c6.118-26.653 25.035-55.931 55.932-55.931h55.933c30.89 0 54.184 28.84 58.989 55.493l16.122 72.838c17.565 5.685 34.433 12.853 50.559 21.194l63.1-40.199c11.313-7.866 26.481-12.76 41.465-12.76 14.467 0 28.8 4.546 39.461 15.248l39.588 39.548c21.803 21.847 14.509 55.93 0 79.089l-38.89 64.757c7.819 15.38 14.596 31.371 20.055 47.976l72.671 18.132c26.655 6.115 55.932 25.039 55.932 55.93v55.93c-0.003 30.893-28.841 54.181-55.497 58.993zM514.684 247.971c-74.593 0-135.333 60.562-135.333 134.931s60.739 134.889 135.333 134.889c74.588 0 135.287-60.52 135.287-134.889s-60.699-134.931-135.287-134.931z"  horiz-adv-x="1024" />

    
    <glyph glyph-name="zhinanxuanzhong" unicode="&#58903;" d="M860.16 117.76 860.16 691.2c0 45.13792-36.72064 81.92-82.00192 81.92l-491.33568 0C241.43872 773.12 204.8 736.44032 204.8 691.2l0-532.48 504.38144 0 38.33856 0-10.24-23.47008c-12.57472-16.87552-20.48-41.39008-20.48-68.68992 0-50.8928 27.50464-92.16 61.44-92.16 51.2 0 81.92 41.2672 81.92 92.16 0 3.46112-0.12288 6.88128 0 10.24L860.16 117.76zM450.56 506.88c0 11.30496 9.27744 20.48 20.41856 20.48l123.00288 0c11.28448 0 20.41856-9.09312 20.41856-20.48 0-11.30496-9.27744-20.48-20.41856-20.48l-123.00288 0C459.69408 486.4 450.56 495.49312 450.56 506.88zM450.56 384c0 11.30496 9.27744 20.48 20.41856 20.48l123.00288 0c11.28448 0 20.41856-9.09312 20.41856-20.48 0-11.30496-9.27744-20.48-20.41856-20.48l-123.00288 0C459.69408 363.52 450.56 372.61312 450.56 384zM675.84 65.78176c0-35.4304 10.77248-67.62496 28.32384-91.38176L204.8-25.6c-33.93536 0-61.44 41.2672-61.44 92.16 0 18.944 3.80928 36.5568 10.3424 51.2l529.77664 0C678.54336 101.21216 675.84 83.5584 675.84 65.78176z"  horiz-adv-x="1024" />

    
    <glyph glyph-name="bianji-copy" unicode="&#58881;" d="M815.53-63.469h-620.392c-32.114 0-65.542 14.131-90.842 39.431-25.299 25.3-40.307 57.851-40.307 89.965v644.854c0 33.148 15.633 63.797 43.115 85.249 24.101 18.813 55.687 29.754 88.035 29.754h336.698c16.889 0 30.579-13.811 30.579-30.699s-13.691-30.699-30.579-30.699h-336.699c-33.181 0-69.751-21.061-69.751-53.604v-644.855c0-33.531 36.221-67.998 69.751-67.998h620.392c32.542 0 51.755 34.817 51.755 67.998l0 332.621c0 16.889 13.811 30.579 30.699 30.579s30.699-13.691 30.699-30.579v-332.621c0-32.348-10.015-63.056-28.828-87.158-21.452-27.482-51.177-42.237-84.326-42.237zM488.65 345.787c-9.913 0-19.827 3.782-27.39 11.346-15.127 15.127-15.127 39.65 0 54.777l409.075 409.074c15.127 15.127 39.652 15.127 54.779 0s15.127-39.65 0-54.777l-409.075-409.074c-7.563-7.564-17.477-11.346-27.389-11.346z"  horiz-adv-x="1024" />

    
    <glyph glyph-name="gongjuxiang" unicode="&#58951;" d="M942.4 606.912c0 0-127.36-128.384-140.352-141.504-12.992-13.056-56.96-11.712-56.96-11.712S628.8 466.88 611.968 483.584C595.328 500.352 583.808 622.08 583.808 622.08S580.544 655.936 597.312 672.768c16.704 16.768 141.056 141.184 141.056 141.184S754.304 831.872 731.2 832C656.64 832.256 505.152 830.528 431.808 756.992L416.576 741.952c-84.736-85.376-92.224-213.184-27.52-307.072L104.64 183.04c-34.176-34.176-71.104-135.168 0-206.4 71.104-71.232 171.776-34.176 205.824 0.064 0 0 203.264 228.928 252.608 283.2 93.568-67.136 222.336-60.48 308.096 25.6l15.104 15.104C957.376 371.968 959.68 522.24 960 598.272 960.192 622.528 942.4 606.912 942.4 606.912zM229.312 17.024c-46.656 0-84.352 37.632-84.352 84.288 0 46.528 37.76 84.288 84.352 84.288 46.592 0 84.224-37.824 84.224-84.288C313.536 54.656 275.904 17.024 229.312 17.024z"  horiz-adv-x="1024" />

    
    <glyph glyph-name="gouwupinlv" unicode="&#59102;" d="M730.099303 603.209453 730.099303 676.482342c0 121.255136-98.263642 219.518778-219.518778 219.518778l0 0c-121.255136 0-219.518778-98.263642-219.518778-219.518778l0-73.272889L145.815488 603.209453l0-730.829593 730.629667 0L876.445155 603.209453 730.099303 603.209453 730.099303 603.209453zM365.234303 384.290453l-73.172926 0 0 145.946 73.172926 0L365.234303 384.290453zM656.526525 603.209453 364.734488 603.209453 364.734488 676.482342c0 38.985575 15.194378 75.572038 42.684207 103.16183C435.10845 807.134 471.694913 822.328378 510.680488 822.328378c38.985575 0 75.572038-15.194378 103.16183-42.684207C641.332147 752.05438 656.526525 715.367954 656.526525 676.482342L656.526525 603.209453 656.526525 603.209453zM730.399192 384.390416l-73.172926 0L657.226266 530.336416l73.172926 0L730.399192 384.390416z"  horiz-adv-x="1024" />

    
    <glyph glyph-name="xiaotieshitubiao" unicode="&#59063;" d="M575.049143-43.095771l-68.929829 0c-19.017143 0-34.464914-14.716343-34.464914-32.885029 0-18.139429 15.418514-32.885029 34.464914-32.885029l68.929829 0c19.017143 0 34.464914 14.7456 34.464914 32.885029C609.514057-57.812114 594.066286-43.095771 575.049143-43.095771zM540.584229 746.203429c19.017143 0 34.464914 14.716343 34.464914 32.885029L575.049143 844.858514c0 18.168686-15.447771 32.885029-34.464914 32.885029-19.0464 0-34.464914-14.716343-34.464914-32.885029l0-65.770057C506.119314 760.919771 521.537829 746.203429 540.584229 746.203429zM127.063771 466.651429 58.1632 466.651429c-19.0464 0-34.464914-14.716343-34.464914-32.885029 0-18.168686 15.418514-32.885029 34.464914-32.885029l68.900571 0c19.0464 0 34.464914 14.716343 34.464914 32.885029C161.528686 451.935086 146.110171 466.651429 127.063771 466.651429zM261.9392 633.914514c13.458286 12.843886 13.458286 33.645714 0 46.4896l-48.713143 46.518857c-13.458286 12.843886-35.284114 12.843886-48.713143 0-13.458286-12.843886-13.458286-33.674971 0-46.518857l48.713143-46.4896C226.684343 621.070629 248.480914 621.070629 261.9392 633.914514zM643.949714 55.559314l-206.760229 0c-19.017143 0-34.464914-14.716343-34.464914-32.885029 0-18.139429 15.418514-32.885029 34.464914-32.885029l206.760229 0c19.0464 0 34.464914 14.7456 34.464914 32.885029C678.414629 40.842971 662.996114 55.559314 643.949714 55.559314zM1023.005257 466.651429l-68.900571 0c-19.0464 0-34.464914-14.716343-34.464914-32.885029 0-18.168686 15.447771-32.885029 34.464914-32.885029l68.900571 0c19.017143 0 34.464914 14.716343 34.464914 32.885029C1057.470171 451.935086 1042.051657 466.651429 1023.005257 466.651429zM916.655543 726.922971c-13.458286 12.843886-35.254857 12.843886-48.713143 0L819.2 680.433371c-13.458286-12.843886-13.458286-33.674971 0-46.4896 13.458286-12.843886 35.254857-12.843886 48.7424 0l48.713143 46.4896C930.143086 693.277257 930.143086 714.079086 916.655543 726.922971zM540.584229 680.433371c-171.300571 0-310.125714-132.5056-310.125714-295.994514 0-163.488914 138.8544-295.994514 310.125714-295.994514 171.271314 0 310.125714 132.5056 310.125714 295.994514C850.709943 547.927771 711.855543 680.433371 540.584229 680.433371z"  horiz-adv-x="1083" />

    
    <glyph glyph-name="jituan" unicode="&#59047;" d="M606.46763583 794.1589169l376.23295242-120.58882908v-646.33836279h-376.23295242v705.62562655l-137.89162762-71.50382143v-109.75095466h-54.6683512v141.06712999l13.74799644 7.9523486 178.81068785 93.53686282zM246.39828827 530.1223019500001v-502.89316598h275.85833845v473.8993923l-275.85833845 88.41308035-134.708358-62.2854144-13.78683258-7.93681415v-167.06663664l-60.26075655-67.53606164v-266.07939634h54.66835121v245.56743743l60.29700362 67.53606163v156.24041309l93.79318138 42.14110435zM291.66829164 513.6674259700001c15.57717902-4.09591909 30.75305118-8.09863143 45.52502739-11.97836262 0-22.04469223 0-44.03889746 0-66.07193885-14.77327075 2.92306741-29.94655383 5.94193067-45.52502739 9.04882252 0 22.99747239 0 45.97941033 0 68.99888988v0zM451.31592944 291.20620214999997c0.02977438-19.54623337 0.02977438-39.08987765 0.02977438-58.6153984 11.30261365 0 22.34243603 0 33.16607053 0 0 18.79799024 0 37.62575486 0 56.47552665-10.82492903 0.69775613-21.86863502 1.4071631-33.2023176 2.13987175v0zM377.70848332 295.95974669c0-21.13333728 0-42.27055819 0-63.36635386 13.24053744 0 26.11083694 0 38.61607665 0 0 20.25693488 0 40.56824035 0 60.8821349-12.50782878 0.80390827-25.3755392 1.62982368-38.61607665 2.48810257v0zM291.66829164 301.51719949000005c15.57717902-1.00326717 30.75305118-1.98970533 45.52502739-2.9424855 0-22.01232877 0-44.00653401 0-65.98391024-14.77327075 0-29.94655383 0-45.52502739 0 0 22.94698541 0 45.9276288 0 68.92639574v0zM451.31592944 381.37467638c0-19.56176782 0-39.10929573 0-58.65035093 11.3349771-1.13272098 22.37738857-2.23178398 33.20231759-3.29201082 0 18.82905917 0 37.66070739 0 56.49235563-10.82492903 1.76963381-21.86863502 3.58457648-33.20231759 5.44741705v0zM377.70848332 393.43977307c0-21.13333728 0-42.27055819 0-63.42072445 13.24053744-1.3191345 26.11083694-2.59684377 38.61607665-3.84089505 0 20.31389456 0 40.62520003 0 60.91708744-12.50782878 2.06867216-25.3755392 4.16841324-38.61607665 6.34323753v0zM291.66829164 407.53600032c15.57717902-2.56318578 30.75305118-5.04611019 45.52502739-7.45783499 0-22.01232877 0-44.02595209 0-66.03698631-14.77327075 1.46412278-29.94655383 2.9800271-45.52502739 4.51664403 0 23.00006147 0 45.99753387 0 68.9794718v0zM451.31592944 471.63247376c0-19.57730228 0-39.14295372 0-58.68659801 11.3349771-2.2460239 22.37738857-4.44414989 33.20231759-6.58402165 0 18.83164823 0 37.68142 0 56.52989725-10.82492903 2.83503882-21.86863502 5.75940077-33.20231759 8.74072241v0zM377.70848332 491.0155953c0-21.15663897 0-42.30680525 0-63.44273162 13.24053744-2.63309085 26.11083694-5.18980393 38.61607665-7.67531741 0 20.31389456 0 40.60189835 0 60.95333453-12.50782878 3.29201083-25.3755392 6.67075571-38.61607665 10.1647145v0zM668.19510423 690.67741108c0-31.39255309 0-62.74368095 0-94.11811049 21.23948942-4.2046603 41.94045093-8.33553193 62.09123367-12.32400436 0 30.02163707 0 60.03809597 0 90.09727463-20.14948819 5.3037233-40.84656608 10.75114035-62.09123367 16.34484022v0zM885.94550329 387.26353099c0.03495253-26.65454302 0.03495253-53.3285041 0.03495253-79.93256013 15.42960165 0 30.49284898 0 45.23116721 0 0 25.63444685 0 51.33750423 0 77.02502717-14.73572915 0.94760202-29.79897648 1.9146221-45.27000335 2.90623842v0zM785.53075863 393.75046226c0-28.82936731 0-57.66391277 0-86.42078594 18.06787067 0 35.61663147 0 52.69418036 0 0 27.62415218 0 55.32597665 0 83.02132845-17.11379595 1.11718653-34.62501515 2.23307852-52.69418036 3.39945749v0zM668.19510423 401.34163469c0-31.37313502 0-62.72555742 0-94.01066383 21.23948942 0 41.94045093 0 62.09123367 0 0 29.94655383 0 59.96948543 0 89.98723888-20.14948819 1.29971643-40.84656608 2.63567991-62.09123367 4.02342495v0zM885.94550329 510.2485504c0-26.67396109 0-53.33368225 0-80.00764334 15.46714327-1.53402785 30.53427422-3.03310317 45.27000336-4.47780788 0 25.66939938 0 51.37504585 0 77.07939777-14.73572915 2.39619035-29.83910717 4.86228575-45.27000336 7.40605345v0zM785.53075863 526.70213183c0-28.82936731 0-57.66391277 0-86.49328008 18.06787067-1.79423005 35.57908987-3.53020587 52.69418036-5.2325237 0 27.69664631 0 55.39717627 0 83.09382258-17.11379595 2.78325728-34.62501515 5.67137217-52.69418036 8.6319812v0zM668.19510423 545.93638147c0-31.3524224 0-62.72555742 0-94.08186342 21.23948942-2.10362469 41.94045093-4.1671187 62.09123367-6.16459126 0 30.02163707 0 60.04327411 0 90.06102756-20.14948819 3.30883982-40.84656608 6.68887925-62.09123367 10.18413258v0zM885.94550329 633.34360557c0-26.69208462 0-53.36863478 0-80.0400068 15.42960165-3.07323387 30.49284898-6.0545555 45.27000336-8.97632837 0 25.68622838 0 51.39446391 0 77.09622676-14.77585983 3.87455305-29.83910717 7.86432-45.27000336 11.92269749v0zM785.53075863 659.78066615c0-28.86949799 0-57.6988653 0-86.5282326 18.06787067-3.58457648 35.57908987-7.07724073 52.69418036-10.45728016 0 27.69664631 0 55.37905271 0 83.11194611-17.11379595 4.49722595-34.62501515 9.1226112-52.69418036 13.87745027z"  horiz-adv-x="1024" />

    
    <glyph glyph-name="renlianshibie1" unicode="&#58960;" d="M400.736 340.748zM279.619 155.186s-1.304 9.275 2.348 19.19c4.203 11.407 13.58 23.828 16.04 26.78 4.596 5.517 48.187 41.633 70.794 51.485 8.301 3.618 57.36 20.03 71.15 31.983s19.181 35.708 2.631 51.337-46.545 81.366-46.545 81.366-32.062 119.98 36.202 168.596c24.594 18.617 51.026 26.891 72.402 26.891 24.823 0 51.623-5.521 66.197-12.87 26.432-13.33 42.234-32.415 55.394-60.449 15.86-33.787 12.186-81.496 5.287-107.333-7.187-26.914-25.513-69.421-51.715-98.382-26.352-29.124 1.147-51.947 8.044-54.245 31.674-10.557 87.956-34.826 116.677-58.253 13.922-11.355 31.633-28.749 38.011-45.644 2.694-7.137 1.65-14.242 2.068-19.478l-464.985-0.974zM841.946-44.934H643.978c-18.245 0-32.993 14.748-32.993 32.993s14.748 32.996 32.993 32.996h197.968c18.214 0 32.998 14.78 32.998 32.993V219.025c0 18.247 14.746 32.995 32.993 32.995 18.246 0 32.996-14.748 32.996-32.995v-164.977c0-54.573-44.41-98.982-98.987-98.982zM347.025-44.934H182.05c-54.574 0-98.986 44.41-98.986 98.983V219.025c0 18.247 14.782 32.995 32.996 32.995 18.213 0 32.995-14.748 32.995-32.995v-164.977c0-18.214 14.815-32.993 32.996-32.993h164.975c18.213 0 32.995-14.75 32.995-32.996s-14.784-32.993-32.996-32.993zM116.059 515.98c-18.214 0-32.996 14.783-32.996 32.996V713.95c0 54.573 44.412 98.984 98.986 98.984h164.975c18.213 0 32.995-14.782 32.995-32.995 0-18.213-14.782-32.995-32.995-32.995H182.05c-18.181 0-32.996-14.814-32.996-32.995v-164.975c0-18.212-14.782-32.993-32.995-32.993zM907.938 515.98c-18.247 0-32.993 14.783-32.993 32.996V713.95c0 18.18-14.784 32.995-32.998 32.995H643.978c-18.245 0-32.993 14.782-32.993 32.995 0 18.214 14.748 32.995 32.993 32.995h197.968c54.575 0 98.987-44.411 98.987-98.984v-164.975c0-18.214-14.75-32.995-32.995-32.995z"  horiz-adv-x="1024" />

    
    <glyph glyph-name="tongzhi1" unicode="&#58965;" d="M512-133.811c56.962 0 103.564 46.602 103.564 103.564h-207.126c0-56.962 46.602-103.564 103.564-103.564zM848.576 176.874v284.798c0 158.969-110.291 292.050-258.9 327.26v35.21c0 42.98-34.701 77.671-77.677 77.671-0.031 0-0.067 0-0.103 0-42.843 0-77.572-34.731-77.572-77.572 0-0.034 0-0.069 0-0.103v-35.204c-148.613-35.21-258.906-168.291-258.906-327.26v-284.798l-103.564-103.564v-51.779h880.29v51.779l-103.569 103.564z"  horiz-adv-x="1024" />

    
    <glyph glyph-name="guanggao" unicode="&#58955;" d="M908.288 530.944l-141.824 321.536L2.048 515.584l184.32-417.792v-170.496h836.096v604.16h-114.176zM185.856 468.48l-26.112-10.752 26.112-60.928v-155.648L80.896 489.984l657.408 278.528 100.864-237.568H773.12l-67.072 158.208-372.736-158.208h-146.944V468.48z m775.168-480.768H246.784V469.504h713.728v-481.792zM525.312 286.208h-1.024c-0.512-4.608-1.536-9.216-2.56-13.312l-18.432-55.808h42.496L527.36 272.384c-1.024 3.072-1.536 7.68-2.048 13.824zM675.84 285.696h-18.432v-104.448h18.432c16.384 0 28.672 4.608 37.888 14.336 9.216 9.728 13.824 22.528 13.824 38.912 0 15.872-4.608 28.16-14.336 37.376-9.216 9.216-22.016 13.824-37.376 13.824zM900.096 409.088H307.712v-360.448h592.384V409.088zM565.76 153.6l-11.776 36.864h-58.368l-11.776-36.864h-36.864l58.368 159.744h39.936L603.136 153.6h-37.376z m174.08 22.528c-15.872-14.848-36.352-22.528-61.44-22.528h-55.296V313.344h55.296c56.832 0 84.992-26.112 84.992-77.824 0.512-24.576-7.68-44.544-23.552-59.392z"  horiz-adv-x="1024" />

    
    <glyph glyph-name="treeline" unicode="&#59646;" d="M295.385 876.308h39.385v-39.385h-39.385v39.385zM295.385 797.538h39.385v-39.385h-39.385v39.385zM295.385 718.769h39.385v-39.385h-39.385v39.385zM295.385 640h39.385v-39.385h-39.385v39.385zM295.385 561.231h39.385v-39.385h-39.385v39.385zM295.385 640h39.385v-39.385h-39.385v39.385zM295.385 482.462h39.385v-39.385h-39.385v39.385zM295.385 482.462h39.385v-39.385h-39.385v39.385zM295.385 403.692h39.385v-39.385h-39.385v39.385zM295.385 324.923h39.385v-39.385h-39.385v39.385zM295.385 246.154h39.385v-39.385h-39.385v39.385zM295.385 167.385h39.385v-39.385h-39.385v39.385zM295.385 246.154h39.385v-39.385h-39.385v39.385zM295.385 88.615h39.385v-39.385h-39.385v39.385zM295.385 324.923h39.385v-39.385h-39.385v39.385zM295.385 246.154h39.385v-39.385h-39.385v39.385zM295.385 167.385h39.385v-39.385h-39.385v39.385zM295.385 88.615h39.385v-39.385h-39.385v39.385zM295.385 9.846h39.385v-39.385h-39.385v39.385zM295.385 88.615h39.385v-39.385h-39.385v39.385zM295.385-68.923h39.385v-39.385h-39.385v39.385zM728.615 403.692v-39.385h-39.385v39.385h39.385zM649.846 403.692v-39.385h-39.385v39.385h39.385zM728.615 403.692v-39.385h-39.385v39.385h39.385zM571.077 403.692v-39.385h-39.385v39.385h39.385zM728.615 403.692v-39.385h-39.385v39.385h39.385zM649.846 403.692v-39.385h-39.385v39.385h39.385zM571.077 403.692v-39.385h-39.385v39.385h39.385zM492.308 403.692v-39.385h-39.385v39.385h39.385zM571.077 403.692v-39.385h-39.385v39.385h39.385zM413.538 403.692v-39.385h-39.385v39.385h39.385z"  horiz-adv-x="1024" />

    
    <glyph glyph-name="mendian1" unicode="&#58939;" d="M932.8 694.4H88L0 464c0-68.8 57.6-126.4 128-126.4s128 56 128 126.4c0-68.8 57.6-126.4 128-126.4s128 56 128 126.4c0-68.8 57.6-126.4 128-126.4s128 56 128 126.4c0-68.8 57.6-126.4 128-126.4s128 56 128 126.4l-91.2 230.4z m-70.4-395.2v-292.8H161.6V299.2H88v-307.2c0-25.6 28.8-59.2 56-59.2h736c25.6 0 56 32 56 59.2V299.2h-73.6z m70.4 396.8l3.2-3.2-3.2 3.2zM145.6 753.6h731.2c25.6 0 43.2 19.2 43.2 43.2 0 25.6-19.2 43.2-43.2 43.2H145.6c-25.6 0-43.2-19.2-43.2-43.2 0-25.6 19.2-43.2 43.2-43.2z"  horiz-adv-x="1024" />

    
    <glyph glyph-name="tuijian" unicode="&#58898;" d="M69.72928-80.05632h419.77344V-128H69.72928zM542.208-80.05632h418.4576V-128H542.208zM235.02336 692.67968l-30.30528-30.29504-30.30016 30.3104 30.30528 30.29504zM621.10208 771.54816l-60.544 60.56448-60.544-60.56448 60.544-60.52864zM757.92384 692.63872l-30.30016-30.29504-30.30528 30.30528 30.30016 30.29504zM667.12064 426.24h117.76v-387.84h-117.76zM648.94464 469.80096l-184.64768 187.904c-34.37568 35.3024-90.8544 36.0448-126.1568 1.66912-35.29216-34.37568-36.0448-90.85952-1.66912-126.1568l58.73152-63.41632H286.3616c-73.76896 0-133.7856-60.01664-133.7856-133.79072v-258.53952c0-51.0208 24.30464-77.47072 74.22464-77.47072h597.33504V469.80096h-175.19104z m-20.224-432.256h-395.52S192.50176 42.88512 192.6656 92.16v39.68h167.25504v40.32H192.67072v96h167.25504v40.32h-167.8848c-1.82272 25.0112-1.69984 115.72224 95.35488 121.6h193.6896l-8.67328 10.38336 0.5376 0.0256-25.0368 29.2864-0.01536 0.02048-77.71136 90.91584c-21.1456 21.71392-25.8048 46.21824-4.096 67.36384 21.71904 21.1456 51.33824 15.56992 72.48384-6.14912l162.77504-165.80096 1.12128 0.06656 26.25024-26.112v-392.53504z m156.16 0.85504h-117.76V426.24h117.76v-387.84zM672.30208 772.70528L560.55808 884.43904 448.8192 772.70528l111.744-111.74912 111.73888 111.74912z m-111.744 59.40736l60.53888-60.5696-60.53888-60.52864-60.544 60.53376 60.544 60.56448zM727.59808 627.03616l66.29888 66.304-66.29888 66.29888-66.29888-66.29888 66.29888-66.304z m30.30016 65.62304l-30.30016-30.29504-30.30016 30.29504 30.30016 30.3104 30.30016-30.3104zM271.02208 693.34016l-66.304 66.29888-66.29888-66.29888 66.29888-66.304 66.304 66.304z m-36.00384-0.68096l-30.30016-30.29504-30.30016 30.29504 30.30016 30.3104 30.30016-30.3104z"  horiz-adv-x="1024" />

    
    <glyph glyph-name="jiantou-copy" unicode="&#58956;" d="M723.696 362.897c0.486 0.973 1.338 1.824 1.703 2.797 8.514 17.758 5.717 39.651-9.365 53.882l-343.725 325.116c-18.731 17.758-48.287 16.907-66.045-1.824s-16.907-48.287 1.824-66.045l308.453-291.79-307.236-296.047c-18.609-17.881-19.096-47.436-1.216-66.045 9.122-9.487 21.407-14.351 33.57-14.352 11.676 0 23.353 4.378 32.353 13.137l340.563 328.278c0.608 0.608 0.851 1.581 1.581 2.189 0.487 0.487 0.973 0.851 1.581 1.338 2.797 2.797 4.135 6.203 5.959 9.365v0zM723.696 362.897z"  horiz-adv-x="1024" />

    
    <glyph glyph-name="wenjianjia" unicode="&#58961;" d="M847.33665713 53.383033169999976H176.66081326c-32.88058237 0-59.61439407 27.57614694-59.61439407 61.48877975V653.10542148c0 33.91263199 26.73381172 61.51154535 59.61439407 61.51154535h285.00439224c13.79018161 0 26.42099304-7.58101629 32.80806849-19.70760718l94.11050555-176.2124653h244.31429223c32.87973862 0 74.05382236-39.55686795 74.05382236-73.47202954v-330.35136603c0-33.91347574-26.73465546-61.49046561-59.61523699-61.49046561z m-639.70506079 58.35552896H816.36587405c18.35936472 0 33.2456781 14.76742538 33.2456781 32.98260608V420.04840301c0 21.58283579-17.63507455 39.07878552-39.39076126 39.07878552H576.24555078c-14.86607739 0-28.48340725 8.17377045-35.37217365 21.2472507L448.77891086 643.6938648400001c-5.76059436 10.79183935-17.065086 17.54063882-29.37296036 17.54063883H207.63159634c-18.3585218 0-33.24483517-14.76742538-33.24483516-32.98344984v-483.52904187c0.0025296-18.21602444 14.88547046-32.98344983 33.24483516-32.98344983zM814.95692361 487.32054273c-20.7472456-0.38448963-37.73054389 16.86862573-37.73054388 37.4556676v57.2804761c0 14.49170618-11.84243994 27.89739817-26.44881784 27.89739816H516.34110364c-20.75146189 0-38.13948496 16.84838891-37.75162281 37.43374494 0.37437122 19.9580312 16.81128946 23.60309052 37.01974383 23.60309052H781.21377002c34.03657919 0 61.71053521-39.70105115 61.71053521-73.47118662v-73.47034286c0-20.04825064-7.85083338-36.35700622-27.96738162-36.72884784z"  horiz-adv-x="1024" />

    
    <glyph glyph-name="wenjianjia1" unicode="&#58974;" d="M128.87375 503.083125h24.193125v209.184375c0 17.169375 13.9734375 31.6125 31.6115625 31.6125h238.1015625c10.14375 0 18.954375-4.4971875 24.84375-11.4909375l110.23125-118.831875h279.20625c17.154375 0 31.6284375-14.23125 31.6284375-31.854375V503.08125h23.95125c17.379375 0 32.0503125-14.23125 32.0503125-31.854375 0-2.0278125-0.440625-3.3909375-0.440625-5.19375l-51.0346875-405.909375c-1.134375-9.7340625-6.57-17.865-14.034375-22.8309375-5.8575-5.4046875-13.7625-9.0225-22.1203125-9.0225H184.6784375c-8.58375 0-16.26 3.6178125-22.149375 8.58375-8.1309375 5.4046875-13.550625 14.0053125-14.428125 24.148125L97.248125 467.4c-2.030625 17.1675 10.18875 33.200625 27.8109375 35.683125h3.8146875z m87.4171875 0h588.691875v46.5234375H544.3071875c-8.8125 0-17.184375 3.860625-23.4825 10.415625l-111.609375 120.1640625H216.2909375v-177.103125z m640.2121875-63.691875H164.800625l42.9196875-343.8084375h605.83125l42.9515625 343.8084375z"  horiz-adv-x="1024" />

    
    <glyph glyph-name="zhanghaobeidao" unicode="&#58915;" d="M760.557 829.448c-69.547 19.743-135.478-53.32-114.809-114.389 13.058-60.426 103.716-81.954 151.64-42.295 61.178 41.68 41.97 145.246-36.831 156.684z m-20.035-230.796s-112.717 114.359-156.841 113.31c0 0-348.867-4.508-386.588-112.956-24.32-69.543 15.056-156.509 130.623-158.771-12.1-16.112-21.734-34.464-15.875-54.567 11.093-73.15 29.289-145.186 42.538-218.129-44.25-50.838-94.649-97.22-134.909-150.98-30.555-35.676 9.195-94.117 57.186-77.361 48.558 25.069 80.701 68.824 118.359 105.44 27.706 30.536 60.798 58.087 80.579 93.652 0.76 58.674-21.113 115.178-25.235 173.499 45.014-9.125 71.955-46.21 106.126-71.306 24.535-22.053 54.776-39.539 73.858-66.04-4.504-66.746-14.138-133.343-11.54-200.055 3.045-39.248 67.645-50.072 89.391-18.368 30.173 39.631 17.306 91.194 24.407 136.353 1.012 47.381 18.763 98.804-2.599 143.783-44 45.687-130.914 107.805-176.879 151.683 40.006 46.912 76.079 100.701 76.079 100.701s24.535-23.135 76.835-54.608c60.163-36.21 105.551-2.313 83.619 72.385-16.675 56.833-49.134 92.335-49.134 92.335z"  horiz-adv-x="1024" />

    
    <glyph glyph-name="genders" unicode="&#59022;" d="M419.480385 650.90476m-218.097093 0a218.097093 218.097093 0 1 1 436.194186 0 218.097093 218.097093 0 1 1-436.194186 0ZM541.547877 663.282708c-1.763993 0-3.553985 0.189999-5.291978 0.541998a28.325882 28.325882 0 0 0-5.101979 1.545993 27.505886 27.505886 0 0 0-4.66598 2.49599 25.933892 25.933892 0 0 0-4.123983 3.363986 27.737885 27.737885 0 0 0-3.391986 4.123983 26.827888 26.827888 0 0 0-2.46999 4.69398 27.463886 27.463886 0 0 0-1.573993 5.073979 28.86388 28.86388 0 0 0-0.515998 5.291978c0 1.763993 0.189999 3.553985 0.515998 5.289978a28.419882 28.419882 0 0 0 4.043983 9.76796 27.737885 27.737885 0 0 0 3.391986 4.123982 27.737885 27.737885 0 0 0 4.123983 3.391986 27.599885 27.599885 0 0 0 4.66598 2.46999c1.655993 0.677997 3.363986 1.219995 5.101979 1.573994a27.779884 27.779884 0 0 0 10.581956 0c1.735993-0.351999 3.445986-0.895996 5.073979-1.573994a26.55989 26.55989 0 0 0 4.69398-2.46999 27.737885 27.737885 0 0 0 4.123983-3.391986 25.933892 25.933892 0 0 0 3.363986-4.123982c0.975996-1.465994 1.817992-3.037987 2.49599-4.665981 0.677997-1.655993 1.193995-3.363986 1.545993-5.101979 0.351999-1.735993 0.541998-3.527985 0.541998-5.289978 0-1.763993-0.189999-3.553985-0.541998-5.291978a27.379886 27.379886 0 0 0-1.545993-5.073979c-0.677997-1.655993-1.519994-3.227987-2.49599-4.69398a25.933892 25.933892 0 0 0-3.363986-4.123983 25.933892 25.933892 0 0 0-4.123983-3.363986c-1.465994-0.975996-3.037987-1.817992-4.69398-2.49599a27.379886 27.379886 0 0 0-5.073979-1.545993c-1.735993-0.351999-3.525985-0.541998-5.289978-0.541998zM328.736762 714.500495a27.037888 27.037888 0 0 0-19.18592 7.947967c-10.595956 10.595956-10.595956 27.775884 0 38.37384 54.627773 54.623773 142.223408 60.661748 203.745153 14.041942 11.94395-9.047962 14.291941-26.065892 5.239978-38.011842-9.047962-11.94395-26.069892-14.291941-38.011842-5.239978-40.035833 30.335874-97.041596 26.39789-132.603448-9.161962a27.033888 27.033888 0 0 0-19.183921-7.949967zM592.871664 824.292038c-95.611602 95.609602-251.182955 95.611602-346.794558 0-89.123629-89.123629-95.129604-230.329042-18.099924-326.520641l-112.803531-112.803531V421.481714c0 14.985938-12.147949 27.133887-27.133887 27.133887s-27.133887-12.147949-27.133887-27.133887v-102.017576c0-14.985938 12.147949-27.133887 27.133887-27.133887h102.019575c14.985938 0 27.133887 12.147949 27.133887 27.133887s-12.147949 27.133887-27.133887 27.133888H153.547491l112.795531 112.79753c43.33182-34.783855 96.765597-53.717777 153.131363-53.717776 65.501728 0 127.081471 25.507894 173.395279 71.823701 46.315807 46.315807 71.823701 107.895551 71.823701 173.397279s-25.503894 127.077471-71.821701 173.393278z m-38.371841-308.422717c-0.002 0-0.002 0 0 0-36.06585-36.06585-84.01765-55.929767-135.025438-55.929767s-98.959588 19.863917-135.025438 55.929767c-74.45369 74.45169-74.45369 195.595186 0 270.048877 37.231845 37.231845 86.121642 55.839768 135.025438 55.839768 48.893797 0 97.801593-18.617923 135.023438-55.839768 36.06585-36.06585 55.929767-84.01765 55.929768-135.025438s-19.861917-98.957588-55.927768-135.023439zM599.401636 117.11498m-218.097092 0a218.097093 218.097093 0 1 1 436.194185 0 218.097093 218.097093 0 1 1-436.194185 0ZM477.350144 50.453258c-1.763993 0-3.553985 0.161999-5.317978 0.515997a28.79788 28.79788 0 0 0-5.073979 1.573994 27.239887 27.239887 0 0 0-4.66598 2.46999 27.737885 27.737885 0 0 0-4.123983 3.391986 27.737885 27.737885 0 0 0-3.391986 4.123982 27.581885 27.581885 0 0 0-2.49599 4.665981 28.689881 28.689881 0 0 0-1.545993 5.073979 27.225887 27.225887 0 0 0-0.515998 5.317978c0 1.763993 0.161999 3.553985 0.515998 5.291978a27.379886 27.379886 0 0 0 1.545993 5.073979c0.677997 1.655993 1.519994 3.227987 2.49599 4.69398a27.737885 27.737885 0 0 0 3.391986 4.123983 25.933892 25.933892 0 0 0 4.123983 3.363986 27.581885 27.581885 0 0 0 4.66598 2.49599 28.689881 28.689881 0 0 0 5.073979 1.545993 26.839888 26.839888 0 0 0 10.609956 0 27.379886 27.379886 0 0 0 5.073979-1.545993c1.655993-0.677997 3.227987-1.519994 4.69398-2.49599a25.933892 25.933892 0 0 0 4.123983-3.363986 25.933892 25.933892 0 0 0 3.363986-4.123983c0.975996-1.465994 1.817992-3.037987 2.49599-4.69398 0.677997-1.627993 1.193995-3.337986 1.545994-5.073979 0.351999-1.735993 0.541998-3.527985 0.541997-5.291978 0-1.763993-0.189999-3.553985-0.541997-5.317978a28.689881 28.689881 0 0 0-1.545994-5.073979c-0.677997-1.627993-1.519994-3.201987-2.49599-4.665981a25.933892 25.933892 0 0 0-3.363986-4.123982 27.737885 27.737885 0 0 0-4.123983-3.391986c-1.465994-0.975996-3.037987-1.789993-4.69398-2.46999-1.627993-0.677997-3.337986-1.221995-5.073979-1.573994-1.737993-0.353999-3.527985-0.515998-5.291978-0.515997zM599.223637-38.176374c-32.903863 0-65.909726 10.313957-93.63161 31.31987-11.94395 9.047962-14.291941 26.065892-5.239979 38.011842 9.047962 11.94595 26.071892 14.291941 38.011842 5.239978 40.031833-30.331874 97.043596-26.39789 132.599449 9.161962 10.595956 10.595956 27.775884 10.595956 38.37384 0 10.595956-10.595956 10.595956-27.775884 0-38.37384-30.009875-30.013875-69.985709-45.359811-110.113542-45.359812zM955.144156 360.599967l-36.933846 36.933847 31.22587 31.22587c10.595956 10.595956 10.595956 27.775884 0 38.37384-10.595956 10.595956-27.775884 10.595956-38.37384 0l-31.22587-31.22387-36.933847 36.933846c-10.595956 10.595956-27.775884 10.595956-38.37384 0-10.595956-10.595956-10.595956-27.775884 0-38.37384l36.933846-36.933846-88.92363-88.92363c-43.32982 34.783855-96.761597 53.717777-153.129363 53.717776-65.501728 0-127.081471-25.507894-173.397278-71.823701-95.609602-95.611602-95.609602-251.182955 0-346.794557C473.818159-104.094099 536.611898-127.996 599.409636-127.996s125.591478 23.901901 173.397279 71.707702c46.315807 46.315807 71.823701 107.897551 71.823701 173.397278 0 56.365766-18.933921 109.799543-53.717776 153.129363l88.92163 88.92163 36.933846-36.933846c5.299978-5.299978 12.241949-7.947967 19.18592-7.947967s13.889942 2.647989 19.18592 7.947967c10.601956 10.595956 10.601956 27.777884 0.004 38.37384zM734.437075-17.916458c-74.45169-74.45369-195.595186-74.45369-270.048877 0s-74.45369 195.597186 0 270.048877c36.06585 36.06585 84.01765 55.929767 135.025438 55.929767 51.001788 0 98.949588-19.861917 135.015439-55.921767l0.008-0.008 0.008-0.008c36.05985-36.06585 55.921767-84.01165 55.921767-135.015439 0-51.007788-19.861917-98.959588-55.929767-135.025438z"  horiz-adv-x="1024" />

    
    <glyph glyph-name="xing" unicode="&#58986;" d="M932.03017935 488.05457227c-7.02365598 22.51570688-26.73879098 40.78610293-59.03427228 52.05506972h-1.42251305l-177.16949617 47.7875322-116.73493835 177.16949615v1.42251225C557.95382449 791.82768805 535.48257104 805.875 511.58880536 805.875c-16.89233725 0-42.18638845-7.02365598-64.70209616-42.18638845L348.44439362 603.3892251c-45.03141375-14.04731196-88.61808856-26.73879098-133.60504889-40.80832965l-64.70209534-19.67068159C120.64233997 533.06375931 100.90497824 517.59393512 93.90354897 495.10045495c-8.40171478-22.47125345-2.80057187-49.23227115 16.87011055-80.14969281l1.40028552-2.8450253c39.38581741-49.165591 77.34912177-98.42008886 116.71271164-147.65236001-1.40028552-70.28101236-4.17863068-142.02899038-5.5789162-212.33222946-2.8450253-33.76244695 1.40028552-57.65621265 15.42537075-73.10381012 9.86868128-11.2689668 23.91599241-16.89233725 40.80832966-16.89233725 12.62479888 0 29.53936286 2.82279859 50.61032996 11.2689668l171.56835324 70.30323907c64.70209534-23.91599241 129.33751053-47.83198563 194.0618334-71.7257513 12.66925232-4.22308411 23.87153897-5.64559717 35.11827906-5.64559718 23.91599241 0 64.67986863 11.2689668 68.94740615 85.77306326v2.82279859c-4.24531082 63.30180982-7.02365598 126.5591662-11.24674008 189.83874848v1.44473977l126.53693949 170.12361346c16.89233725 23.93821912 23.93821912 49.23227115 16.89233724 71.72575132z"  horiz-adv-x="1025" />

    
    <glyph glyph-name="renlianshibie2" unicode="&#58911;" d="M939.564091 826.241321l-45.438346 16.949224a69.419695 69.419695 0 0 1-23.224043 37.504666 63.072751 63.072751 0 0 1-42.264874 15.290364c-18.319587 0-34.186946-6.707565-47.566014-20.086634-13.343006-13.343006-20.050572-29.210365-20.050572-47.529952s6.671503-34.150884 20.050572-47.529952c13.379068-13.415131 29.246427-20.086634 47.566014-20.086633 8.43855 0 16.55254 1.586736 24.305909 4.760207 7.717306 3.173472 14.785493 7.573058 21.132437 13.198758l42.228811-14.785494c14.785493-5.6257 27.47938-16.732851 38.045599-33.285391 10.566218-16.55254 15.867359-33.646013 15.867359-51.244356v-597.983054c0-16.913162-5.30114-33.646013-15.867359-50.198553-10.566218-16.55254-23.224043-27.623629-38.045599-33.249329l-38.009536-12.693887a84.601872 84.601872 0 0 1-22.214303 15.867358 60.584461 60.584461 0 0 1-27.443318 6.310882c-18.319587 0-34.150884-6.671503-47.566014-20.050572-13.343006-13.379068-20.050572-29.210365-20.050572-47.566014 0-18.319587 6.671503-34.150884 20.050572-47.529952 13.415131-13.379068 29.246427-20.086634 47.566014-20.086634 14.785493 0 27.984251 4.399586 39.596273 13.198758 11.648084 8.835234 19.545701 19.906323 23.801038 33.285391l46.484149 15.867359c28.1285 9.844975 51.749227 28.849743 70.790057 57.050367 19.004768 28.164562 28.489121 58.096171 28.489122 89.794826v597.983054c0 31.698655-9.484353 61.630264-28.489122 89.794825-19.040831 28.200624-42.264874 47.205392-69.744254 57.050368zM223.261028 7.449545a65.056171 65.056171 0 0 1-52.831093-26.397515l-49.65762 17.958965c-14.06425 4.940519-26.433577 14.965804-36.999796 30.111919-10.566218 15.146115-15.831297 30.11192-15.831297 44.897413v612.768547c0 15.506737 5.265078 30.833163 15.867359 45.979279 10.530156 15.146115 22.863422 25.171401 36.963734 30.075857l52.831092 20.086634a65.128295 65.128295 0 0 1 49.657621-22.17824c18.283525 0 33.970573 6.671503 46.989019 20.086633 13.054509 13.343006 19.545701 29.210365 19.545701 47.529952s-6.491192 34.150884-19.545701 47.529952a63.253062 63.253062 0 0 1-46.989019 20.086634c-15.506737 0-29.066116-4.399586-40.678138-13.198757a65.669228 65.669228 0 0 1-23.801038-34.331195l-61.269643-22.214302c-26.758137-9.844975-49.657621-28.1285-68.662389-54.922699-19.004768-26.758137-28.525184-54.958761-28.525183-84.529748v-612.768547c0-29.570987 9.520415-57.771611 28.525183-84.529748 19.004768-26.758137 42.264874-44.717102 69.744255-53.876895l62.315445-22.17824c5.6257-11.972643 13.920001-21.853681 24.846841-29.570987 10.890778-7.753369 23.404354-11.648084 37.504667-11.648084 18.283525 0 33.970573 6.707565 46.989019 20.086634 13.054509 13.343006 19.545701 29.210365 19.545701 47.529952s-6.491192 34.150884-19.545701 47.566014a63.253062 63.253062 0 0 1-46.989019 20.050572z m420.485008 384.567077c-13.379068 0-24.66653 4.579897-33.826324 13.739691a45.943216 45.943216 0 0 0-13.703628 33.826324c0 12.657825 4.543835 23.584665 13.703628 32.744458s20.447256 13.703628 33.826324 13.703628c12.657825 0 23.584665-4.543835 32.744458-13.703628s13.703628-20.086634 13.703629-32.744458c0-13.379068-4.543835-24.66653-13.703629-33.826324a44.717102 44.717102 0 0 0-32.744458-13.703628z m-127.840425-225.027997c-42.950055 0-79.589229 16.011608-109.88146 48.070885-30.29223 32.059277-45.438346 68.157518-45.438345 108.294723h311.685414c0-40.137205-15.146115-76.235447-45.438346-108.294723-30.29223-32.059277-67.255964-48.070885-110.927263-48.070885z m-175.370377 272.594012c0 12.657825 4.579897 23.584665 13.703628 32.744458 9.159793 9.159793 20.447256 13.703628 33.826324 13.703628 12.693887 0 23.584665-4.543835 32.744459-13.703628s13.73969-20.086634 13.73969-32.744458c0-13.379068-4.579897-24.66653-13.703628-33.826324a44.717102 44.717102 0 0 0-32.780521-13.703628c-13.379068 0-24.66653 4.543835-33.790262 13.703628a45.943216 45.943216 0 0 0-13.73969 33.826324z m175.370377 249.333906c-41.54363 0-80.815343-7.933679-117.815139-23.801038a299.063651 299.063651 0 0 1-96.14177-64.947985 309.810181 309.810181 0 0 1-64.443114-96.64664 295.890179 295.890179 0 0 1-23.764976-117.815139c0-41.579692 7.933679-80.851406 23.801039-117.815139a309.810181 309.810181 0 0 1 64.407051-96.64664 299.063651 299.063651 0 0 1 96.14177-64.984047c36.999796-15.867359 76.271509-23.801038 117.815139-23.801038 42.264874 0 81.716898 7.933679 118.32001 23.801038a306.925206 306.925206 0 0 1 96.141769 64.947985 305.302408 305.302408 0 0 1 64.984047 96.64664c15.867359 36.999796 23.801038 76.271509 23.801038 117.851201 0 41.54363-7.933679 80.779281-23.801038 117.779077a305.266346 305.266346 0 0 1-64.984047 96.64664 306.925206 306.925206 0 0 1-96.141769 65.020109 294.73619 294.73619 0 0 1-118.32001 23.764976z"  horiz-adv-x="1037" />

    
    <glyph glyph-name="dianhua" unicode="&#59314;" d="M669.925822-60.303178c-52.900837 8.5487-115.502617 54.826699-158.701488 92.151793-57.854663 49.977251-118.222565 115.938546-169.989579 185.729051l-0.185219 0.25685-16.354479 22.664186c-49.936319 71.109548-93.519953 149.183717-122.735346 219.83687-21.812795 52.756551-46.022173 126.748752-37.472449 179.64959 9.148357 56.609299 59.33948 110.152772 80.494289 130.545218 16.505929 15.913435 73.502038 67.333548 113.816208 60.818158 16.555048-2.674922 32.632211-16.391319 52.134381-44.476981 17.250896-24.833595 32.821523-54.754045 42.842761-75.482135 13.462616-27.828812 25.417903-56.619532 33.670867-81.07655 13.362332-39.59581 13.060457-55.600319 11.67183-64.195068-2.802836-17.34504-14.294564-30.925337-34.149774-40.362266-13.074783-6.212492-28.180829-10.038634-42.790572-13.740956-9.853415-2.494821-25.586748-6.475482-31.918967-10.04375 0.6191-8.603959 5.937223-30.003338 23.569812-67.677379 16.430204-35.103496 38.745443-73.875544 59.733452-103.783715 21.770839-29.336142 51.534723-62.729693 79.685877-89.382726 30.194696-28.590152 48.827055-40.382733 56.803727-43.680848 5.374404 4.886287 14.113439 18.560728 19.584034 27.127847 8.111748 12.7023 16.501836 25.835412 26.521027 36.288484 15.210423 15.872502 31.719422 22.496363 49.064462 19.692505 8.594749-1.388627 23.877827-6.14393 57.256029-31.29475 20.608364-15.533788 44.173059-35.94977 66.341964-57.492413 16.514115-16.044418 40.007179-40.246633 58.148351-64.437591 20.50808-27.357068 28.462239-46.933939 25.787317-63.49001-6.515391-40.314171-73.265654-78.213339-93.568049-88.868003-26.0237-13.652951-92.651167-44.423769-149.260466-35.275411M380.721071 246.667192"  horiz-adv-x="1024" />

    
    <glyph glyph-name="kefu" unicode="&#58882;" d="M512 51.2c199.68 0 358.4 158.72 358.4 358.4s-158.72 358.4-358.4 358.4-358.4-158.72-358.4-358.4v-102.4c0-25.6-20.48-51.2-51.2-51.2h-25.6c-40.96 0-76.8 35.84-76.8 76.8v153.6c0 40.96 35.84 76.8 76.8 76.8 61.44 179.2 235.52 307.2 435.2 307.2s373.76-128 435.2-307.2c40.96 0 76.8-35.84 76.8-76.8v-153.6c0-40.96-35.84-76.8-76.8-76.8-51.2-148.48-179.2-261.12-332.8-296.96-5.12-35.84-35.84-61.44-76.8-61.44h-51.2c-40.96 0-76.8 35.84-76.8 76.8s35.84 76.8 76.8 76.8h25.6zM512 153.6c-143.36 0-256 112.64-256 256s112.64 256 256 256 256-112.64 256-256-112.64-256-256-256zM358.4 409.6c0-87.040 66.56-153.6 153.6-153.6s153.6 66.56 153.6 153.6c0 30.72-20.48 51.2-51.2 51.2s-51.2-20.48-51.2-51.2-20.48-51.2-51.2-51.2-51.2 20.48-51.2 51.2-20.48 51.2-51.2 51.2-51.2-20.48-51.2-51.2z"  horiz-adv-x="1024" />

    
    <glyph glyph-name="fengkong" unicode="&#58896;" d="M602.254583 591.609385c-34.288944 13.417591-64.105017 29.816073-89.449241 47.706535-25.344225-19.380396-55.160297-34.288944-89.449241-47.706535-34.288944-11.926634-61.124126-22.36231-81.99548-26.835182S299.617915 555.829484 280.236496 552.848593v-1.490957c0-13.417591 1.490957-28.325116 2.981914-43.233664 1.490957-14.908548 4.472871-35.779901 8.944719-62.61406 4.472871-26.835182 10.435677-52.178383 17.889439-76.03165 40.251749-132.682905 107.339704-216.169341 202.751751-250.458286 95.41307 34.288944 163.990958 117.77538 202.75175 251.949243 8.944719 32.797987 16.399505 65.595974 20.871353 96.903004 4.472871 31.30703 7.453762 59.633169 8.94472 84.977393-19.380396 2.981914-40.251749 5.962805-61.124126 11.926634-20.869307 4.470825-47.704488 13.415544-81.993433 26.833135z m32.292474-162.320923l-123.922381-123.92238a25.932626 25.932626 0 0 0-2.936888-3.517104c-5.803169-5.803169-13.716396-8.283664-21.328771-7.452739-5.812379 0.538259-11.475356 3.018753-15.901155 7.44353l-0.279363 0.279362a25.964348 25.964348 0 0 0-2.208295 2.526543l-58.736752 58.736753c-10.153244 10.153244-10.153244 26.76662 0 36.919864s26.76662 10.153244 36.919864 0l42.783409-42.783409L597.626169 466.208327c10.076496 10.076496 26.564006 10.076496 36.640502 0l0.279363-0.279363c10.077519-10.075473 10.077519-26.564006 0.001023-36.640502zM901.009851 832.16002h-778.019702c-31.819706 0-57.615209-25.972535-57.615209-58.012252v-780.296559c0-32.039717 25.795503-58.011228 57.615209-58.011229h778.019702c31.819706 0 57.614186 25.971511 57.614186 58.011229V774.147768c0.001023 32.039717-25.792433 58.012252-57.614186 58.012252z m-99.853195-281.431718c0-14.498202-3.221368-40.272215-9.665127-78.933747-6.443759-38.661531-14.498202-74.101695-24.16333-109.540835-20.941961-69.26862-48.326659-127.261429-83.766822-175.588087-45.105291-61.214177-99.875708-101.486392-165.92296-124.039038h-11.275811c-66.047252 22.552645-120.81767 62.824861-165.92296 124.039038-35.440164 48.326659-62.824861 106.319467-83.766822 175.588087-11.275811 35.440164-17.71957 72.491011-24.163329 111.152543-4.833075 38.661531-8.054443 64.435545-9.665127 78.933746s-1.610684 25.774013-1.610684 35.440164c0 1.610684 0 4.833075 1.610684 6.443759 0 3.221368 1.610684 4.833075 3.221367 6.443759 1.610684 1.610684 3.221368 1.610684 4.833076 3.221368 1.610684 0 3.221368 1.610684 6.443759 1.610684 6.443759 0 14.498202 1.610684 25.774013 3.221368 98.265024 17.71957 177.198771 48.326659 236.802264 93.431949 1.610684 1.610684 3.221368 3.221368 4.833075 3.221368h6.443759c4.833075 0 8.054443-1.610684 11.275811-3.221368 14.498202-11.275811 30.607088-20.941961 48.326659-30.607088s33.828456-17.71957 49.938366-24.163329c14.498202-6.443759 32.217772-12.887518 48.326658-17.719571 17.71957-6.443759 32.217772-9.665127 45.105291-12.887518 12.887518-3.221368 25.774013-6.443759 37.050847-8.054443 11.275811-3.221368 19.331277-4.833075 24.16333-4.833075 4.833075-1.610684 8.054443-1.610684 9.665127-1.610684 6.443759 0 9.665127-3.221368 12.887518-3.221368 3.221368-3.221368 4.833075-8.054443 4.833075-12.887518-0.001023-9.66615-0.001023-20.941961-1.611707-35.440164z"  horiz-adv-x="1024" />

    
    <glyph glyph-name="gexinghua1" unicode="&#58910;" d="M960 416c-51.2 57.6-134.4 147.2-160 172.8-6.4 38.4-25.6 160-44.8 236.8-6.4 25.6-19.2 51.2-44.8 64-25.6 6.4-51.2 6.4-76.8-6.4C563.2 851.2 448 800 416 780.8c-38.4 6.4-166.4 19.2-243.2 25.6-25.6 0-51.2-6.4-64-25.6-19.2-12.8-25.6-38.4-25.6-64 12.8-76.8 25.6-204.8 32-243.2C96 441.6 44.8 320 12.8 249.6c-12.8-32-6.4-64 0-76.8 12.8-19.2 32-38.4 57.6-38.4 76.8-12.8 204.8-38.4 243.2-44.8 25.6-25.6 121.6-115.2 172.8-166.4 25.6-19.2 44.8-25.6 57.6-25.6h12.8c19.2 0 38.4 12.8 57.6 44.8 38.4 70.4 102.4 185.6 115.2 217.6 32 19.2 140.8 76.8 211.2 115.2 32 19.2 44.8 44.8 51.2 64-6.4 19.2-6.4 44.8-32 76.8zM352 332.8c-6.4-6.4-19.2-12.8-25.6-12.8-6.4 0-19.2 6.4-25.6 12.8l-25.6 25.6c-12.8 12.8-12.8 38.4 0 51.2 12.8 12.8 38.4 12.8 51.2 0l25.6-25.6c12.8-19.2 12.8-38.4 0-51.2z m128 281.6c12.8 12.8 38.4 12.8 51.2 0l25.6-25.6c12.8-12.8 12.8-38.4 0-51.2-6.4-6.4-12.8-6.4-25.6-6.4-6.4 0-19.2 0-25.6 6.4l-25.6 25.6c-12.8 12.8-12.8 38.4 0 51.2z m102.4-288c-25.6-25.6-57.6-38.4-89.6-38.4h-25.6c-19.2 12.8-32 32-25.6 51.2 6.4 12.8 25.6 25.6 44.8 25.6 0 0 25.6-6.4 44.8 12.8 19.2 19.2 12.8 44.8 12.8 44.8-6.4 19.2 6.4 38.4 25.6 44.8 19.2 6.4 38.4-6.4 44.8-25.6 6.4-25.6 6.4-76.8-32-115.2zM1011.2-64l-172.8 172.8c-12.8 12.8-38.4 12.8-51.2 0-12.8-12.8-12.8-38.4 0-51.2l172.8-172.8c6.4-6.4 19.2-12.8 25.6-12.8 6.4 0 19.2 6.4 25.6 12.8 12.8 12.8 12.8 32 0 51.2z"  horiz-adv-x="1024" />

    
    <glyph glyph-name="yonghu" unicode="&#58934;" d="M787.2 531.2c0 147.2-121.6 268.8-268.8 268.8S249.6 678.4 249.6 531.2c0-83.2 38.4-153.6 96-204.8-121.6-64-198.4-185.6-198.4-326.4 0-32 25.6-51.2 51.2-51.2 32 0 51.2 25.6 51.2 51.2 0 147.2 121.6 268.8 268.8 268.8s268.8-121.6 268.8-268.8c0-32 25.6-51.2 51.2-51.2 32 0 51.2 25.6 51.2 51.2 0 140.8-83.2 268.8-198.4 326.4 57.6 51.2 96 128 96 204.8zM524.8 371.2c-89.6 0-160 70.4-160 160s70.4 160 160 160 160-70.4 160-160-76.8-160-160-160z"  horiz-adv-x="1024" />

    
    <glyph glyph-name="guanggaochuanmei" unicode="&#58922;" d="M638.808-92.569c-49.252-13.225-99.913 16.054-113.115 65.317-13.2 49.242 16.03 99.911 65.306 113.103 229.924 61.608 369.923 284.62 312.703 498.128-54.51 203.427-268.427 324.85-487.38 282.592 252.139 49.78 503.246-103.914 570.77-355.865 70.443-262.782-85.526-532.9-348.284-603.275zM416.322 866.571c-7.11-1.408-14.234-2.912-21.332-4.636a476.82 476.82 0 0 0 21.332 4.636z m166.614-464.227c-18.975 0-36.108 7.91-48.372 20.654l-98.633-75.75c3.72-10.479 5.88-21.757 5.88-33.551 0-54.507-43.632-98.69-97.449-98.69-53.828 0-97.46 44.184-97.46 98.69 0 54.511 43.632 98.693 97.46 98.693 24.69 0 47.2-9.412 64.355-24.725l108.162 68.32c-0.74 3.415-1.173 6.9-1.408 10.48-0.117 1.467-0.235 2.934-0.235 4.413 0 37.868 30.3 68.555 67.7 68.555 37.399 0 67.698-30.687 67.698-68.555 0-5.329-0.632-10.445-1.76-15.41a65.663 65.663 0 0 0-2.945-9.644l93.573-101.755c7.136 4.164 15.245 6.747 24.07 6.747 26.614 0 48.184-21.826 48.135-48.747 0-26.956-21.554-48.794-48.17-48.794-26.628 0-48.184 21.838-48.184 48.794 0 11.044 3.766 21.124 9.879 29.303l-94.548 90.947c-12.237-12.346-29.125-19.975-47.748-19.975z m-86.04 391.377c13.201-49.242-16.043-99.914-65.306-113.091-229.937-61.61-369.94-284.645-312.715-498.165 54.52-203.426 268.439-324.824 487.378-282.555-252.16-49.792-503.256 103.901-570.78 355.841-70.399 262.807 85.525 532.91 348.308 603.297 49.252 13.19 99.935-16.076 113.114-65.327zM606.252-100.09c7.112 1.408 14.235 2.899 21.347 4.634a477.714 477.714 0 0 0-21.347-4.634z"  horiz-adv-x="1024" />

    
    <glyph glyph-name="tuijian2" unicode="&#58949;" d="M119.466667 874.666667v-981.333334l392.533333 165.9136 392.533333-165.9136V874.666667H119.466667z m186.146133-232.686934c23.773867-1.518933 43.502933-2.0224 59.1872-2.0224h59.1872c0 13.149867-0.512 28.322133-2.0224 45.525334h39.458133a515.4048 515.4048 0 0 1-2.0224-45.525334h114.824534c0 13.149867-0.503467 28.322133-2.0224 45.525334h39.458133a515.4048 515.4048 0 0 1-2.0224-45.525334h61.2096c15.675733 0 37.4272 0.512 65.245867 2.0224v-35.413333a1136.605867 1136.605867 0 0 1-65.245867 2.0224H609.621333c0-6.570667 0.512-19.217067 2.0224-37.435733h-39.458133c1.518933 15.684267 2.0224 28.330667 2.0224 37.435733H459.895467c0-9.096533 0.503467-21.751467 2.0224-37.435733h-39.458134c1.518933 17.2032 2.0224 29.841067 2.0224 37.435733h-59.1872c-14.6688 0-34.397867-0.512-59.1872-2.0224v35.413333h-0.494933z m80.938667-411.246933c1.518933 22.2464 2.0224 46.0288 2.0224 71.313067V404.744533c-25.2928-26.299733-50.082133-48.5632-74.862934-67.285333-8.0896 11.630933-17.706667 23.773867-29.841066 35.4048 27.818667 14.677333 54.126933 33.3824 79.9232 57.1648 25.796267 23.773867 49.066667 49.570133 70.314666 76.885333h-61.2096c-17.194667 0-38.946133-0.503467-65.245866-2.0224v35.4048c23.773867-1.5104 43.502933-2.013867 59.178666-2.013866h87.005867a342.9888 342.9888 0 0 1 23.773867 49.570133c14.6688-8.0896 30.353067-13.653333 47.556266-17.698133-11.639467-9.105067-21.248-19.7376-27.8272-31.36h156.305067c21.248 0 44.509867 0.503467 71.3216 2.013866v-35.4048a1231.163733 1231.163733 0 0 1-71.3216 2.0224H479.624533a4080.042667 4080.042667 0 0 0-53.111466-65.245866v-140.125867c0-24.7808 0.503467-48.554667 2.0224-71.313067h-41.984v-0.008533z m352.059733 116.8384c-22.254933 1.518933-46.0288 2.0224-71.3216 2.0224h-49.570133v-74.8544c0-17.2032-6.0672-28.330667-18.7136-33.390933s-34.397867-9.096533-66.261334-11.630934c0 10.624-6.0672 24.285867-17.706666 41.480534 23.765333-1.518933 39.9616-2.0224 49.570133-2.0224 10.624 0 15.675733 7.082667 15.675733 21.751466v59.1872h-74.862933c-17.2032 0-35.4048-0.512-55.133867-2.0224v35.413334c19.729067-1.527467 38.946133-2.030933 57.1648-2.030934h71.3216c0 8.0896-0.503467 16.699733-2.0224 25.8048 18.210133 8.0896 35.4048 17.698133 51.592534 29.841067H535.2704c-19.7376 0-40.977067-0.512-63.232-2.0224v35.4048c22.254933-1.518933 45.013333-2.0224 67.2768-2.0224h167.936v-31.36c-14.6688-2.5344-28.834133-7.594667-42.487467-14.6688-13.661867-7.082667-29.3376-16.196267-46.5408-26.820267v-13.661866h49.570134c23.773867 0 47.547733 0.512 71.3216 2.0224l-0.503467-36.420267z"  horiz-adv-x="1024" />

    
    <glyph glyph-name="shouqi" unicode="&#58926;" d="M165.93066406 779.5078125h692.13867188v-148.31542969H165.93066406z m0-593.26171875h692.13867188v-148.31542969H165.93066406z m247.19238281 296.63085938h444.94628907v-148.31542969H413.12304687zM314.24609375 537.2592773399999v-247.19238281l-148.31542969 123.59619141zM314.24609375 537.2592773399999v-247.19238281l-148.31542969 123.59619141z"  horiz-adv-x="1024" />

    
    <glyph glyph-name="yincangsousuo" unicode="&#58886;" d="M519.999 844.053c-258.082 0-468.052-209.971-468.052-468.052s209.97-468.053 468.052-468.053S988.052 117.92 988.052 376.001c0 258.082-209.971 468.052-468.053 468.052z m0-57.619c105.73 0 202.232-40.187 275.051-106.105l-579.333-579.38c-65.919 72.819-106.104 169.32-106.104 275.052 0 226.29 184.096 410.433 410.386 410.433z m0-820.774c-99.856 0-191.509 35.853-262.746 95.385l577.75 577.7c59.532-71.234 95.381-162.888 95.381-262.744 0.001-226.287-184.099-410.341-410.385-410.341z"  horiz-adv-x="1024" />

    
    <glyph glyph-name="xingbie" unicode="&#58917;" d="M613.793187 591.250831C613.793187 759.30142 476.124174 896 306.896593 896 137.665116 896 0 759.30142 0 591.250831c0-159.706422 124.453193-291.135822 282.136905-303.694943v-161.812925H134.021119c-10.006375 0-18.140087-11.968677-18.140086-26.675222 0-14.704597 8.133712-26.589481 18.140086-26.589482h148.117735v-168.596214c0-12.687733 12.013496-22.883128 26.82332-22.883128 14.790338 0 26.799937 10.195395 26.799937 22.883128v168.596214h144.031392c10.008324 0 18.116703 11.884884 18.116703 26.589482 0 14.708494-8.112276 26.675223-18.116703 26.675222h-144.031392v162.150043c155.744794 14.494142 278.031076 144.958954 278.031076 303.357825m-551.763405 0c0 134.040606 109.834337 243.18122 244.866811 243.18122 135.011039 0 244.86876-109.140614 244.868761-243.18122 0-134.087374-109.855772-243.183168-244.868761-243.183168-135.032475 0-244.866812 109.095795-244.866811 243.183168m0 0zM1142.293475 300.025371c-15.780258 38.604926-38.910866 73.197559-68.811122 102.862027-29.876873 29.668366-64.72478 52.67426-103.598622 68.30642a313.358354 313.358354 0 0 1-91.020014 21.618446V798.868985l116.83198-116.009644c11.01773-11.000192 28.885004-11.000192 39.928067 0 10.994346 10.912502 10.994346 28.699881-0.021436 39.610435L874.171341 882.764693c-11.019679 10.9164-28.888902 10.9164-39.910529 0L672.827877 722.471724c-11.01773-10.912502-11.01773-28.699881 0-39.610435 11.043063-11.000192 28.888902-11.000192 39.904683 0l109.690136 108.844417v-299.14287c-30.31727-2.782688-59.858973-9.945967-88.215891-21.36707-38.87579-15.63216-73.723697-38.640002-103.620056-68.30447-29.874924-29.666417-53.011378-64.25905-68.770201-102.862028-15.228787-37.28958-22.945485-76.646689-22.945485-117.058024 0-40.370413 7.714749-79.729471 22.945485-116.978129 15.758823-38.601029 38.895277-73.234583 68.770201-102.901001 29.898308-29.666417 64.746215-52.637235 103.620056-68.312265 37.52147-15.123559 77.178674-22.754516 117.843335-22.754516 40.658815 0 80.290685 7.630957 117.837488 22.754516 38.852406 15.67503 73.721749 38.645848 103.598622 68.312265 29.900257 29.666417 53.030865 64.299972 68.811123 102.901001 15.217095 37.248658 22.927947 76.607716 22.927947 116.978129-0.003897 40.411335-7.736185 79.766496-22.931845 117.054127m-108.696319-297.328668c-100.094929-99.360283-263.006898-99.360283-363.109622 0-100.100775 99.447973-100.100775 261.179054 0 360.584157 100.102723 99.360283 262.98936 99.360283 363.090136 0 100.12221-99.405103 100.12221-261.136184 0.019486-360.584157m0 0z"  horiz-adv-x="1165" />

    
    <glyph glyph-name="jianhao" unicode="&#58928;" d="M512-37.875c-232.03125001 0-421.875 189.84375001-421.875 421.875s189.84375001 421.875 421.875 421.875 421.875-189.84375001 421.875-421.875-189.84375001-421.875-421.875-421.875zM512 747.8671875C311.609375 747.8671875 148.1328125 584.390625 148.1328125 384c0-200.390625 163.4765625-363.8671875 363.8671875-363.8671875 200.390625 0 363.8671875 163.4765625 363.8671875 363.8671875 0 200.390625-163.4765625 363.8671875-363.8671875 363.8671875zM301.0625 420.9140625h421.875v-68.5546875H301.0625z"  horiz-adv-x="1024" />

    
    </font>
</defs>
</svg>
